<svg id="svg" version="1.1" xmlns="http://www.w3.org/2000/svg" xmlns:xlink="http://www.w3.org/1999/xlink" width="400" height="400" viewBox="0, 0, 400,400"><g id="svgg"><path id="path0" d="M92.800 168.400 C 92.800 168.620,92.522 168.800,92.183 168.800 C 91.843 168.800,91.080 169.250,90.487 169.800 C 89.893 170.350,89.597 170.800,89.829 170.800 C 90.060 170.800,90.649 170.427,91.139 169.971 C 91.628 169.516,92.247 169.231,92.514 169.340 C 92.886 169.491,92.883 169.544,92.500 169.568 C 91.596 169.626,91.979 170.400,92.911 170.400 C 94.402 170.400,95.383 171.826,94.377 172.531 C 93.266 173.309,94.113 173.908,96.308 173.899 C 98.244 173.890,99.600 174.831,99.600 176.182 C 99.600 176.654,99.797 177.237,100.037 177.477 C 100.353 177.793,100.353 178.141,100.038 178.728 C 99.799 179.176,99.699 179.793,99.817 180.100 C 99.946 180.436,99.628 180.841,99.015 181.120 C 97.798 181.675,97.698 182.396,98.800 182.684 C 99.840 182.956,99.811 183.399,98.700 184.219 C 98.097 184.664,97.965 184.946,98.300 185.075 C 98.575 185.180,98.800 185.612,98.800 186.033 C 98.800 186.496,99.078 186.801,99.500 186.803 C 100.150 186.806,101.200 188.404,101.200 189.391 C 101.200 189.629,101.560 190.083,102.000 190.400 C 102.440 190.717,102.800 191.365,102.800 191.839 C 102.800 192.314,103.070 192.926,103.400 193.200 C 103.730 193.474,104.000 194.312,104.000 195.063 C 104.000 196.545,104.880 198.183,106.287 199.320 C 106.897 199.814,107.262 200.674,107.445 202.054 C 107.618 203.358,107.939 204.154,108.356 204.312 C 109.305 204.670,110.000 205.457,110.000 206.171 C 110.000 206.517,110.180 206.800,110.400 206.800 C 110.620 206.800,110.806 207.115,110.813 207.500 C 110.825 208.158,110.858 208.157,111.370 207.482 C 111.884 206.804,111.958 206.821,112.715 207.782 C 113.155 208.342,113.711 208.800,113.950 208.800 C 114.189 208.800,114.498 209.250,114.636 209.800 C 115.320 212.526,115.985 210.508,116.063 205.467 C 116.114 202.145,116.176 201.766,116.400 203.400 C 116.551 204.500,116.703 199.865,116.737 193.100 C 116.792 182.405,116.722 180.800,116.200 180.800 C 115.870 180.800,115.600 180.620,115.600 180.400 C 115.600 180.180,115.240 180.000,114.800 180.000 C 114.360 180.000,114.000 179.820,114.000 179.600 C 114.000 179.380,113.730 179.200,113.400 179.200 C 113.070 179.200,112.800 179.048,112.800 178.863 C 112.800 178.677,111.945 178.092,110.900 177.563 C 109.855 177.033,108.940 176.465,108.867 176.300 C 108.793 176.135,108.428 176.000,108.055 176.000 C 107.682 176.000,107.117 175.640,106.800 175.200 C 106.483 174.760,105.991 174.400,105.706 174.400 C 105.221 174.400,103.643 173.644,103.200 173.199 C 103.090 173.089,102.505 172.744,101.900 172.432 C 101.295 172.120,100.800 171.715,100.800 171.532 C 100.800 171.350,100.566 171.200,100.280 171.200 C 99.544 171.200,97.607 170.259,97.603 169.900 C 97.601 169.735,97.375 169.596,97.100 169.591 C 96.825 169.586,96.150 169.230,95.600 168.800 C 94.543 167.974,92.800 167.724,92.800 168.400 M86.162 172.058 C 85.404 172.912,85.405 172.914,86.300 172.444 C 86.795 172.184,87.200 171.798,87.200 171.586 C 87.200 171.018,87.009 171.105,86.162 172.058 M216.300 190.676 C 215.915 190.776,215.600 191.003,215.600 191.180 C 215.600 192.204,217.125 192.470,224.077 192.663 C 228.105 192.775,231.571 193.031,231.780 193.233 C 231.989 193.435,232.627 193.600,233.197 193.600 C 234.375 193.600,237.600 196.597,237.600 197.692 C 237.600 198.055,237.780 198.464,238.000 198.600 C 238.220 198.736,238.400 199.546,238.400 200.400 C 238.400 201.254,238.220 202.064,238.000 202.200 C 237.780 202.336,237.600 202.743,237.600 203.104 C 237.600 204.339,234.110 207.200,232.603 207.200 C 231.857 207.200,231.148 207.361,231.026 207.558 C 230.904 207.755,227.846 207.919,224.230 207.922 C 217.314 207.929,216.000 208.103,216.000 209.008 C 216.000 209.988,218.840 210.395,225.676 210.398 C 229.693 210.399,232.451 210.559,232.600 210.800 C 232.736 211.020,233.197 211.200,233.624 211.200 C 234.051 211.200,234.400 211.341,234.400 211.514 C 234.400 211.686,234.940 212.146,235.600 212.536 C 236.260 212.926,236.800 213.505,236.800 213.823 C 236.800 214.140,236.980 214.400,237.200 214.400 C 237.420 214.400,237.600 214.749,237.600 215.176 C 237.600 215.603,237.780 216.064,238.000 216.200 C 238.220 216.336,238.400 217.157,238.400 218.024 C 238.400 218.891,238.220 219.600,238.000 219.600 C 237.780 219.600,237.600 219.971,237.600 220.423 C 237.600 221.744,234.483 224.800,233.135 224.800 C 232.511 224.800,232.000 224.986,232.000 225.213 C 232.000 225.484,229.410 225.608,224.449 225.573 C 216.922 225.520,214.940 225.813,215.307 226.927 C 215.518 227.567,219.310 227.897,227.077 227.953 L 233.554 228.000 236.137 226.381 C 240.069 223.915,240.800 222.545,240.800 217.642 C 240.800 215.456,240.658 213.607,240.486 213.533 C 238.370 212.636,237.905 208.275,239.653 205.728 C 241.004 203.759,241.384 197.128,240.228 195.705 C 239.913 195.317,239.189 194.429,238.618 193.731 C 236.257 190.842,234.433 190.394,225.221 190.446 C 220.700 190.472,216.685 190.575,216.300 190.676 M168.000 191.592 C 168.000 191.808,167.557 192.096,167.016 192.232 C 165.932 192.504,164.764 193.600,165.559 193.600 C 165.843 193.600,165.710 194.201,165.208 195.184 C 164.764 196.055,164.400 197.036,164.400 197.364 C 164.400 197.692,164.085 198.146,163.700 198.373 C 163.111 198.720,163.090 198.845,163.570 199.160 C 164.010 199.448,164.341 199.106,165.014 197.667 C 166.736 193.984,169.868 192.940,172.255 195.253 L 173.537 196.496 173.215 195.068 C 173.038 194.283,173.007 193.512,173.147 193.356 C 173.286 193.200,173.204 193.184,172.964 193.320 C 172.724 193.457,172.133 193.036,171.652 192.384 C 170.781 191.207,168.000 190.604,168.000 191.592 M174.134 197.427 C 173.821 198.243,174.489 198.894,175.314 198.578 C 175.845 198.374,175.876 198.191,175.485 197.564 C 174.905 196.636,174.455 196.590,174.134 197.427 M276.120 198.800 C 276.120 200.010,276.195 200.505,276.287 199.900 C 276.378 199.295,276.378 198.305,276.287 197.700 C 276.195 197.095,276.120 197.590,276.120 198.800 M174.800 199.989 C 174.800 200.560,176.549 204.177,176.900 204.333 C 177.065 204.407,177.214 204.857,177.232 205.333 C 177.249 205.810,177.354 205.975,177.465 205.700 C 177.576 205.425,177.922 205.200,178.233 205.200 C 178.545 205.200,178.800 205.078,178.800 204.928 C 178.800 204.268,177.809 202.000,177.520 202.000 C 177.344 202.000,177.200 201.676,177.200 201.280 C 177.200 200.884,176.984 200.344,176.720 200.080 C 176.144 199.504,174.800 199.441,174.800 199.989 M160.417 203.264 C 159.969 203.999,159.602 204.856,159.601 205.169 C 159.601 205.481,159.367 206.021,159.082 206.369 C 158.666 206.875,158.658 207.434,159.043 209.200 C 159.345 210.583,159.537 210.991,159.561 210.300 C 159.583 209.695,159.780 209.200,160.000 209.200 C 160.220 209.200,160.400 208.750,160.400 208.200 C 160.400 207.650,160.536 207.200,160.702 207.200 C 160.869 207.200,161.240 206.615,161.529 205.900 C 161.817 205.185,162.233 204.267,162.454 203.861 C 162.675 203.455,162.798 203.089,162.728 203.048 C 162.657 203.007,162.292 202.738,161.916 202.451 C 161.319 201.995,161.128 202.098,160.417 203.264 M278.134 208.000 C 278.134 209.650,278.205 210.325,278.291 209.500 C 278.378 208.675,278.378 207.325,278.291 206.500 C 278.205 205.675,278.134 206.350,278.134 208.000 M178.670 206.161 C 178.552 206.470,178.707 207.055,179.015 207.461 C 179.532 208.143,179.576 208.100,179.587 206.900 C 179.600 205.577,179.061 205.143,178.670 206.161 M157.700 210.287 C 156.984 211.823,157.081 212.676,158.000 212.916 C 158.860 213.141,158.966 212.529,158.453 210.307 L 158.200 209.214 157.700 210.287 M116.540 216.800 C 116.540 218.670,116.609 219.435,116.693 218.500 C 116.777 217.565,116.777 216.035,116.693 215.100 C 116.609 214.165,116.540 214.930,116.540 216.800 M278.114 215.400 C 278.117 216.500,278.195 216.903,278.287 216.295 C 278.379 215.686,278.377 214.786,278.282 214.295 C 278.187 213.803,278.111 214.300,278.114 215.400 M182.446 214.467 C 182.421 214.833,182.175 215.216,181.900 215.317 C 181.507 215.461,181.504 215.610,181.887 216.017 C 182.479 216.645,182.984 215.695,182.680 214.523 C 182.522 213.912,182.486 213.904,182.446 214.467 M154.650 217.500 C 154.483 217.995,154.178 218.400,153.973 218.400 C 153.768 218.400,153.600 218.730,153.600 219.133 C 153.600 219.537,153.474 219.993,153.320 220.147 C 152.380 221.087,151.651 224.949,152.321 225.439 C 153.026 225.955,155.200 223.233,155.200 221.835 C 155.200 221.522,155.354 221.207,155.543 221.133 C 156.215 220.872,156.494 218.000,155.847 218.000 C 155.524 218.000,155.190 217.685,155.106 217.300 C 154.980 216.717,154.904 216.750,154.650 217.500 M182.000 217.292 C 182.000 218.283,183.115 219.480,183.722 219.140 C 184.501 218.703,184.651 217.842,183.900 218.114 C 183.625 218.214,183.085 218.021,182.700 217.686 C 182.315 217.350,182.000 217.173,182.000 217.292 M278.131 220.200 C 278.133 221.740,278.205 222.321,278.292 221.491 C 278.379 220.661,278.377 219.401,278.289 218.691 C 278.200 217.981,278.129 218.660,278.131 220.200 M276.093 220.400 C 276.093 221.170,276.175 221.485,276.276 221.100 C 276.376 220.715,276.376 220.085,276.276 219.700 C 276.175 219.315,276.093 219.630,276.093 220.400 M184.162 222.488 C 184.380 223.306,184.815 224.074,185.128 224.194 C 185.538 224.351,185.638 224.188,185.486 223.606 C 185.370 223.163,185.438 222.700,185.638 222.577 C 186.538 222.020,185.998 220.832,184.883 220.916 C 183.796 220.998,183.776 221.040,184.162 222.488 M276.101 223.400 C 276.105 224.280,276.187 224.593,276.283 224.095 C 276.379 223.598,276.375 222.878,276.275 222.495 C 276.175 222.113,276.096 222.520,276.101 223.400 " stroke="none" fill="#5615b1" fill-rule="evenodd"></path><path id="path1" d="M63.375 151.500 C 62.949 151.885,62.105 152.455,61.500 152.768 C 60.895 153.080,60.400 153.485,60.400 153.668 C 60.400 153.850,59.984 154.000,59.475 154.000 C 58.967 154.000,58.164 154.360,57.692 154.800 C 57.220 155.240,56.596 155.600,56.305 155.600 C 56.014 155.600,55.517 155.960,55.200 156.400 C 54.883 156.840,54.303 157.200,53.912 157.200 C 53.132 157.200,52.956 157.802,53.617 158.211 C 53.847 158.353,54.657 157.994,55.417 157.414 C 56.178 156.834,56.800 156.486,56.800 156.642 C 56.800 156.797,57.115 156.649,57.500 156.313 C 57.885 155.977,58.920 155.376,59.800 154.978 C 60.680 154.579,62.152 153.746,63.072 153.127 C 63.992 152.507,64.935 152.000,65.168 152.000 C 65.457 152.000,65.624 157.151,65.696 168.257 C 65.797 184.043,65.823 184.526,66.600 184.957 C 67.040 185.200,67.490 185.490,67.600 185.601 C 67.710 185.711,68.295 186.056,68.900 186.368 C 69.505 186.680,70.000 187.085,70.000 187.268 C 70.000 187.450,70.272 187.600,70.605 187.600 C 71.161 187.600,72.722 188.322,73.200 188.800 C 73.596 189.196,75.815 190.454,76.500 190.671 C 76.885 190.793,77.200 191.052,77.200 191.247 C 77.200 191.441,77.560 191.600,78.000 191.600 C 78.440 191.600,78.800 191.780,78.800 192.000 C 78.800 192.220,79.036 192.400,79.325 192.400 C 79.613 192.400,80.236 192.760,80.708 193.200 C 81.180 193.640,81.757 194.000,81.989 194.000 C 82.532 194.000,83.939 194.807,84.955 195.700 C 85.393 196.085,85.987 196.400,86.275 196.400 C 86.564 196.400,86.800 196.580,86.800 196.800 C 86.800 197.020,87.160 197.200,87.600 197.200 C 88.384 197.200,88.400 197.467,88.400 210.366 L 88.400 223.533 87.200 224.064 C 86.540 224.356,86.000 224.816,86.000 225.085 C 86.000 225.370,85.732 225.472,85.360 225.329 C 85.007 225.194,84.602 225.245,84.460 225.442 C 84.125 225.904,82.005 227.184,81.100 227.471 C 80.715 227.593,80.400 227.852,80.400 228.047 C 80.400 228.241,80.040 228.400,79.600 228.400 C 79.160 228.400,78.800 228.580,78.800 228.800 C 78.800 229.020,78.480 229.200,78.088 229.200 C 77.697 229.200,77.117 229.560,76.800 230.000 C 76.483 230.440,75.903 230.800,75.512 230.800 C 75.120 230.800,74.800 230.969,74.800 231.176 C 74.800 232.005,75.578 231.939,76.976 230.991 C 77.785 230.442,79.156 229.631,80.023 229.188 C 80.890 228.746,81.600 228.188,81.600 227.949 C 81.600 227.710,81.877 227.621,82.215 227.750 C 82.565 227.885,82.928 227.731,83.058 227.393 C 83.183 227.067,83.510 226.800,83.783 226.800 C 84.057 226.800,85.163 226.334,86.240 225.764 C 89.885 223.836,89.600 225.139,89.600 210.400 C 89.600 198.442,89.540 197.273,88.900 196.723 C 88.100 196.036,86.759 195.437,86.266 195.548 C 86.083 195.589,85.581 195.176,85.152 194.629 C 84.722 194.083,84.130 193.729,83.837 193.841 C 83.543 193.954,83.196 193.766,83.064 193.423 C 82.933 193.080,82.643 192.800,82.420 192.800 C 82.197 192.800,80.831 192.076,79.384 191.190 C 77.938 190.305,76.585 189.686,76.377 189.814 C 76.170 189.942,76.000 189.747,76.000 189.381 C 76.000 188.934,75.789 188.795,75.360 188.960 C 74.954 189.116,74.436 188.845,73.945 188.221 C 73.496 187.650,72.925 187.331,72.585 187.461 C 72.215 187.603,72.000 187.439,72.000 187.016 C 72.000 186.528,71.783 186.415,71.200 186.600 C 70.760 186.740,70.400 186.678,70.400 186.464 C 70.400 186.249,69.590 185.562,68.601 184.937 C 66.678 183.722,66.536 183.233,67.926 182.605 C 68.407 182.388,68.800 182.073,68.800 181.905 C 68.800 181.737,69.078 181.600,69.417 181.600 C 69.756 181.600,70.420 181.240,70.892 180.800 C 71.364 180.360,72.039 180.000,72.391 180.000 C 72.742 180.000,73.653 179.467,74.415 178.816 C 75.177 178.165,76.020 177.625,76.288 177.616 C 76.800 177.599,79.657 176.089,80.000 175.654 C 80.178 175.427,81.601 174.631,84.858 172.934 C 85.440 172.631,86.137 172.117,86.407 171.792 C 86.677 171.466,87.129 171.200,87.411 171.200 C 88.132 171.200,91.200 169.520,91.200 169.126 C 91.200 168.947,91.560 168.800,92.000 168.800 C 92.440 168.800,92.800 168.620,92.800 168.400 C 92.800 167.724,94.543 167.974,95.600 168.800 C 96.150 169.230,96.825 169.586,97.100 169.591 C 97.375 169.596,97.601 169.735,97.603 169.900 C 97.607 170.259,99.544 171.200,100.280 171.200 C 100.566 171.200,100.800 171.350,100.800 171.532 C 100.800 171.715,101.295 172.120,101.900 172.432 C 102.505 172.744,103.090 173.089,103.200 173.199 C 103.643 173.644,105.221 174.400,105.706 174.400 C 105.991 174.400,106.483 174.760,106.800 175.200 C 107.117 175.640,107.682 176.000,108.055 176.000 C 108.428 176.000,108.793 176.135,108.867 176.300 C 108.940 176.465,109.855 177.033,110.900 177.563 C 111.945 178.092,112.800 178.677,112.800 178.863 C 112.800 179.048,113.070 179.200,113.400 179.200 C 113.730 179.200,114.000 179.380,114.000 179.600 C 114.000 179.820,114.360 180.000,114.800 180.000 C 115.240 180.000,115.600 180.180,115.600 180.400 C 115.600 180.620,115.871 180.800,116.203 180.800 C 116.735 180.800,116.793 184.262,116.703 210.467 L 116.600 240.135 115.400 240.862 C 114.740 241.261,113.790 241.768,113.290 241.988 C 112.789 242.208,112.274 242.664,112.144 243.001 C 112.015 243.338,111.704 243.583,111.454 243.544 C 110.805 243.444,109.638 243.975,107.800 245.208 C 106.920 245.798,106.020 246.356,105.800 246.447 C 103.528 247.388,101.685 249.200,103.000 249.200 C 103.330 249.200,103.600 249.020,103.600 248.800 C 103.600 248.580,103.960 248.400,104.400 248.400 C 104.840 248.400,105.200 248.220,105.200 248.000 C 105.200 247.780,105.520 247.600,105.912 247.600 C 106.303 247.600,106.883 247.240,107.200 246.800 C 107.517 246.360,108.097 246.000,108.488 246.000 C 108.880 246.000,109.200 245.820,109.200 245.600 C 109.200 245.380,109.560 245.200,110.000 245.200 C 110.440 245.200,110.800 245.020,110.800 244.800 C 110.800 244.580,111.036 244.400,111.325 244.400 C 111.613 244.400,112.236 244.040,112.708 243.600 C 113.180 243.160,113.844 242.800,114.183 242.800 C 114.522 242.800,114.800 242.620,114.800 242.400 C 114.800 242.180,115.078 242.000,115.418 242.000 C 115.758 242.000,116.478 241.558,117.018 241.018 L 118.000 240.036 118.000 210.365 L 118.000 180.694 117.113 179.924 C 116.625 179.501,115.590 178.856,114.813 178.490 C 114.036 178.125,113.051 177.505,112.625 177.113 C 112.198 176.721,111.613 176.400,111.325 176.400 C 111.036 176.400,110.800 176.220,110.800 176.000 C 110.800 175.780,110.440 175.600,110.000 175.600 C 109.560 175.600,109.200 175.420,109.200 175.200 C 109.200 174.980,108.880 174.800,108.488 174.800 C 108.097 174.800,107.517 174.440,107.200 174.000 C 106.883 173.560,106.429 173.200,106.191 173.200 C 105.525 173.200,103.607 172.237,103.603 171.900 C 103.601 171.735,103.280 171.600,102.888 171.600 C 102.497 171.600,101.917 171.240,101.600 170.800 C 101.283 170.360,100.829 170.000,100.591 170.000 C 99.925 170.000,98.007 169.037,98.003 168.700 C 98.001 168.535,97.680 168.400,97.288 168.400 C 96.897 168.400,96.317 168.040,96.000 167.600 C 95.389 166.753,92.400 166.421,92.400 167.200 C 92.400 167.420,92.080 167.600,91.688 167.600 C 91.297 167.600,90.717 167.960,90.400 168.400 C 90.083 168.840,89.503 169.200,89.112 169.200 C 88.720 169.200,88.400 169.380,88.400 169.600 C 88.400 169.820,88.040 170.000,87.600 170.000 C 87.160 170.000,86.800 170.180,86.800 170.400 C 86.800 170.620,86.480 170.800,86.088 170.800 C 85.697 170.800,85.117 171.160,84.800 171.600 C 84.483 172.040,83.903 172.400,83.512 172.400 C 83.120 172.400,82.800 172.580,82.800 172.800 C 82.800 173.020,82.440 173.200,82.000 173.200 C 81.560 173.200,81.200 173.380,81.200 173.600 C 81.200 173.820,80.880 174.000,80.488 174.000 C 80.097 174.000,79.517 174.360,79.200 174.800 C 78.883 175.240,78.303 175.600,77.912 175.600 C 77.520 175.600,77.200 175.780,77.200 176.000 C 77.200 176.220,76.840 176.400,76.400 176.400 C 75.960 176.400,75.600 176.580,75.600 176.800 C 75.600 177.020,75.280 177.200,74.888 177.200 C 74.497 177.200,73.917 177.560,73.600 178.000 C 73.283 178.440,72.703 178.800,72.312 178.800 C 71.920 178.800,71.600 178.980,71.600 179.200 C 71.600 179.420,71.240 179.600,70.800 179.600 C 70.360 179.600,70.000 179.780,70.000 180.000 C 70.000 180.220,69.764 180.400,69.475 180.400 C 69.187 180.400,68.564 180.760,68.092 181.200 C 67.620 181.640,67.136 182.000,67.017 182.000 C 66.898 182.000,66.800 175.237,66.800 166.971 C 66.800 154.480,66.704 151.846,66.229 151.371 C 65.457 150.600,64.315 150.652,63.375 151.500 M51.600 158.353 C 51.600 158.548,51.285 158.807,50.900 158.929 C 49.964 159.225,47.834 160.524,47.667 160.900 C 47.593 161.065,47.188 161.200,46.767 161.200 C 46.345 161.200,46.000 161.380,46.000 161.600 C 46.000 161.820,45.775 162.006,45.500 162.013 C 44.663 162.034,43.502 163.118,43.800 163.599 C 43.999 163.922,44.269 163.880,44.740 163.455 C 45.103 163.126,45.580 162.812,45.800 162.756 C 46.685 162.533,48.800 161.095,48.800 160.718 C 48.800 160.496,49.057 160.413,49.371 160.533 C 49.685 160.654,50.160 160.489,50.428 160.167 C 50.695 159.844,51.009 159.675,51.125 159.791 C 51.379 160.046,52.800 158.814,52.800 158.338 C 52.800 158.152,52.530 158.000,52.200 158.000 C 51.870 158.000,51.600 158.159,51.600 158.353 M42.000 164.000 C 42.000 164.220,41.640 164.400,41.200 164.400 C 40.760 164.400,40.400 164.536,40.400 164.702 C 40.400 164.869,39.860 165.244,39.200 165.536 C 38.540 165.828,38.000 166.232,38.000 166.434 C 38.000 167.100,39.586 166.814,40.400 166.000 C 40.840 165.560,41.380 165.200,41.600 165.200 C 41.820 165.200,42.000 165.020,42.000 164.800 C 42.000 164.580,42.360 164.400,42.800 164.400 C 43.240 164.400,43.600 164.220,43.600 164.000 C 43.600 163.780,43.240 163.600,42.800 163.600 C 42.360 163.600,42.000 163.780,42.000 164.000 M36.333 167.100 C 36.260 167.265,35.345 167.833,34.300 168.363 C 33.255 168.892,32.400 169.477,32.400 169.663 C 32.400 169.848,32.040 170.000,31.600 170.000 C 31.160 170.000,30.800 170.180,30.800 170.400 C 30.800 170.620,30.440 170.800,30.000 170.800 C 29.560 170.800,29.200 170.980,29.200 171.200 C 29.200 171.420,28.964 171.600,28.675 171.600 C 28.387 171.600,27.764 171.960,27.292 172.400 C 26.820 172.840,26.156 173.200,25.817 173.200 C 25.478 173.200,25.200 173.380,25.200 173.600 C 25.200 173.820,24.917 174.000,24.571 174.000 C 23.965 174.000,22.800 174.902,22.800 175.371 C 22.800 175.497,23.070 175.600,23.400 175.600 C 23.730 175.600,24.000 175.454,24.000 175.275 C 24.000 175.096,24.630 174.702,25.400 174.400 C 26.170 174.098,26.800 173.704,26.800 173.525 C 26.800 173.346,27.070 173.200,27.400 173.200 C 27.730 173.200,28.000 173.020,28.000 172.800 C 28.000 172.580,28.326 172.400,28.725 172.400 C 29.123 172.400,29.836 172.040,30.308 171.600 C 30.780 171.160,31.410 170.800,31.708 170.800 C 32.006 170.800,32.636 170.440,33.108 170.000 C 33.580 169.560,34.244 169.200,34.583 169.200 C 34.922 169.200,35.200 169.059,35.200 168.888 C 35.200 168.716,35.740 168.372,36.400 168.122 C 37.060 167.873,37.600 167.474,37.600 167.235 C 37.600 166.747,36.540 166.634,36.333 167.100 M21.200 176.000 C 21.200 176.220,20.840 176.400,20.400 176.400 C 19.960 176.400,19.600 176.580,19.600 176.800 C 19.600 177.020,19.322 177.200,18.983 177.200 C 18.644 177.200,17.980 177.560,17.508 178.000 C 17.036 178.440,16.413 178.800,16.125 178.800 C 15.836 178.800,15.600 178.980,15.600 179.200 C 15.600 179.420,15.255 179.600,14.833 179.600 C 13.397 179.600,13.283 182.270,13.447 211.932 C 13.606 240.526,13.683 242.000,15.020 242.000 C 15.656 242.000,16.988 242.671,18.075 243.539 C 18.446 243.836,18.941 243.960,19.175 243.816 C 19.873 243.384,19.657 242.800,18.800 242.800 C 18.360 242.800,18.000 242.620,18.000 242.400 C 18.000 242.180,17.730 242.000,17.400 242.000 C 17.070 242.000,16.800 241.820,16.800 241.600 C 16.800 241.380,16.459 241.200,16.043 241.200 C 14.833 241.200,14.800 240.738,14.800 223.967 C 14.800 213.589,14.660 208.000,14.400 208.000 C 13.500 208.000,13.896 180.887,14.800 180.600 C 15.240 180.460,15.600 180.178,15.600 179.973 C 15.600 179.768,15.960 179.600,16.400 179.600 C 16.840 179.600,17.200 179.420,17.200 179.200 C 17.200 178.980,17.470 178.800,17.800 178.800 C 18.130 178.800,18.400 178.620,18.400 178.400 C 18.400 178.180,18.670 178.000,19.000 178.000 C 19.330 178.000,19.600 177.820,19.600 177.600 C 19.600 177.380,19.960 177.200,20.400 177.200 C 20.840 177.200,21.200 177.020,21.200 176.800 C 21.200 176.580,21.470 176.400,21.800 176.400 C 22.130 176.400,22.400 176.220,22.400 176.000 C 22.400 175.780,22.130 175.600,21.800 175.600 C 21.470 175.600,21.200 175.780,21.200 176.000 M64.136 184.623 C 64.004 184.966,63.657 185.154,63.363 185.041 C 63.070 184.929,62.460 185.306,62.009 185.879 C 61.558 186.453,61.075 186.808,60.935 186.669 C 60.670 186.403,57.902 187.763,56.700 188.749 C 55.841 189.454,55.798 190.000,56.600 190.000 C 56.930 190.000,57.200 189.820,57.200 189.600 C 57.200 189.380,57.520 189.200,57.912 189.200 C 58.303 189.200,58.883 188.840,59.200 188.400 C 59.517 187.960,59.971 187.600,60.209 187.600 C 60.875 187.600,62.793 186.637,62.797 186.300 C 62.799 186.135,63.083 186.000,63.429 186.000 C 64.147 186.000,65.200 185.066,65.200 184.429 C 65.200 183.774,64.406 183.919,64.136 184.623 M389.800 189.687 C 388.920 190.189,388.134 190.752,388.054 190.939 C 387.973 191.125,387.408 191.846,386.798 192.541 C 386.189 193.235,385.298 194.556,384.819 195.475 C 384.340 196.394,383.694 197.356,383.384 197.613 C 383.075 197.870,382.698 198.737,382.548 199.540 C 382.217 201.312,379.500 205.106,378.211 205.596 C 377.698 205.791,377.160 206.142,377.015 206.375 C 376.217 207.666,371.600 205.343,371.600 203.651 C 371.600 203.071,369.927 200.072,369.121 199.207 C 368.724 198.781,368.400 198.156,368.400 197.817 C 368.400 197.478,368.262 197.200,368.094 197.200 C 367.926 197.200,367.494 196.519,367.133 195.687 C 366.773 194.855,365.512 193.145,364.332 191.887 L 362.187 189.600 359.111 189.600 L 356.036 189.600 355.774 190.997 C 355.445 192.752,355.733 193.518,356.890 193.960 C 357.390 194.152,358.128 194.673,358.529 195.118 C 358.931 195.564,359.680 196.034,360.196 196.163 C 360.719 196.294,361.367 196.928,361.664 197.599 C 361.956 198.260,362.331 198.800,362.498 198.800 C 362.664 198.800,362.800 199.078,362.800 199.417 C 362.800 199.756,363.160 200.420,363.600 200.892 C 364.040 201.364,364.400 201.987,364.400 202.275 C 364.400 202.564,364.580 202.800,364.800 202.800 C 365.020 202.800,365.200 202.530,365.200 202.200 C 365.200 201.870,365.020 201.600,364.800 201.600 C 364.580 201.600,364.400 201.240,364.400 200.800 C 364.400 200.360,364.220 200.000,364.000 200.000 C 363.780 200.000,363.600 199.730,363.600 199.400 C 363.600 199.070,363.420 198.800,363.200 198.800 C 362.980 198.800,362.800 198.571,362.800 198.291 C 362.800 197.648,360.475 194.800,359.949 194.800 C 358.994 194.800,357.218 192.593,357.455 191.700 C 358.159 189.044,365.946 192.328,365.990 195.300 C 365.995 195.685,366.146 196.000,366.325 196.000 C 366.504 196.000,366.898 196.630,367.200 197.400 C 367.502 198.170,367.896 198.800,368.075 198.800 C 368.254 198.800,368.400 199.070,368.400 199.400 C 368.400 199.730,368.580 200.000,368.800 200.000 C 369.020 200.000,369.200 200.360,369.200 200.800 C 369.200 201.240,369.346 201.600,369.525 201.600 C 369.704 201.600,370.098 202.230,370.400 203.000 C 370.702 203.770,371.096 204.400,371.275 204.400 C 371.454 204.400,371.600 204.594,371.600 204.831 C 371.600 205.068,372.126 205.788,372.769 206.431 C 375.036 208.697,381.200 207.363,381.200 204.606 C 381.200 204.273,381.380 204.000,381.600 204.000 C 381.820 204.000,382.000 203.722,382.000 203.383 C 382.000 203.044,382.360 202.380,382.800 201.908 C 383.240 201.436,383.600 200.813,383.600 200.525 C 383.600 200.236,383.736 200.000,383.902 200.000 C 384.069 200.000,384.461 199.415,384.774 198.700 C 385.654 196.689,388.412 192.696,389.581 191.739 C 391.080 190.512,395.034 190.302,395.466 191.427 C 395.768 192.215,394.843 194.000,394.132 194.000 C 393.840 194.000,393.600 194.180,393.600 194.400 C 393.600 194.620,393.343 194.800,393.029 194.800 C 392.371 194.800,390.000 197.532,390.000 198.291 C 390.000 198.571,389.820 198.800,389.600 198.800 C 389.380 198.800,389.200 199.070,389.200 199.400 C 389.200 199.730,389.020 200.000,388.800 200.000 C 388.580 200.000,388.400 200.360,388.400 200.800 C 388.400 201.240,388.265 201.601,388.100 201.603 C 387.935 201.605,387.599 202.010,387.354 202.503 C 384.496 208.255,382.642 210.800,381.311 210.800 C 381.030 210.800,380.800 210.980,380.800 211.200 C 380.800 211.420,380.607 211.600,380.371 211.600 C 379.008 211.600,378.800 212.681,378.800 219.767 C 378.800 227.474,378.543 228.400,376.400 228.400 C 374.248 228.400,374.000 227.489,374.000 219.595 C 374.000 214.018,373.885 212.400,373.488 212.400 C 373.207 212.400,372.717 212.040,372.400 211.600 C 372.083 211.160,371.593 210.800,371.312 210.800 C 371.030 210.800,370.800 210.641,370.800 210.447 C 370.800 210.252,370.440 209.999,370.000 209.884 C 369.560 209.769,369.200 209.377,369.200 209.014 C 369.200 208.650,369.020 208.464,368.800 208.600 C 368.076 209.047,368.382 209.855,369.493 210.432 C 370.094 210.745,371.129 211.512,371.793 212.139 L 373.000 213.278 373.034 220.139 C 373.074 228.326,373.514 229.703,376.159 229.926 C 379.367 230.196,380.095 228.328,380.105 219.796 C 380.114 212.820,380.115 212.815,382.130 211.810 C 383.241 211.256,385.752 207.936,387.059 205.292 C 387.633 204.133,388.247 203.094,388.425 202.984 C 388.847 202.724,390.000 200.410,390.000 199.825 C 390.000 199.363,394.025 195.200,394.471 195.200 C 395.162 195.200,397.200 192.907,397.200 192.131 C 397.200 189.687,392.513 188.139,389.800 189.687 M213.062 189.931 C 212.134 190.957,212.234 191.725,213.455 192.945 L 214.509 194.000 223.055 194.000 C 228.485 194.000,231.600 194.146,231.600 194.400 C 231.600 194.620,232.056 194.800,232.613 194.800 C 233.740 194.800,236.400 197.179,236.400 198.187 C 236.400 198.524,236.580 198.800,236.800 198.800 C 237.020 198.800,237.200 199.520,237.200 200.400 C 237.200 201.280,237.020 202.000,236.800 202.000 C 236.580 202.000,236.400 202.278,236.400 202.618 C 236.400 203.775,233.524 206.000,232.029 206.000 C 231.599 206.000,231.126 206.197,230.977 206.438 C 230.804 206.717,230.109 206.774,229.053 206.595 C 225.330 205.965,215.906 206.404,214.100 207.292 C 212.721 207.971,212.783 210.800,214.176 210.800 C 214.713 210.800,215.264 210.980,215.400 211.200 C 215.552 211.445,218.796 211.600,223.800 211.600 C 228.804 211.600,232.048 211.755,232.200 212.000 C 232.336 212.220,232.713 212.400,233.037 212.400 C 233.815 212.400,236.400 215.003,236.400 215.787 C 236.400 216.124,236.580 216.400,236.800 216.400 C 237.020 216.400,237.200 217.120,237.200 218.000 C 237.200 218.880,237.020 219.600,236.800 219.600 C 236.580 219.600,236.400 219.876,236.400 220.213 C 236.400 220.551,235.768 221.458,234.996 222.230 L 233.593 223.634 225.496 223.783 C 214.865 223.979,213.531 224.162,212.894 225.512 C 212.207 226.969,212.253 227.181,213.500 228.253 C 214.701 229.286,233.990 229.786,234.600 228.800 C 234.736 228.580,235.197 228.400,235.624 228.400 C 236.051 228.400,236.400 228.220,236.400 228.000 C 236.400 227.780,236.675 227.600,237.011 227.600 C 237.804 227.600,241.200 224.204,241.200 223.411 C 241.200 223.075,241.380 222.800,241.600 222.800 C 241.844 222.800,242.000 220.933,242.000 218.000 C 242.000 215.067,241.844 213.200,241.600 213.200 C 241.380 213.200,241.200 212.880,241.200 212.488 C 241.200 212.097,240.840 211.517,240.400 211.200 C 239.553 210.589,239.221 207.600,240.000 207.600 C 240.220 207.600,240.400 207.364,240.400 207.075 C 240.400 206.787,240.760 206.164,241.200 205.692 C 242.090 204.737,242.452 195.600,241.600 195.600 C 241.380 195.600,241.200 195.325,241.200 194.989 C 241.200 194.196,237.804 190.800,237.011 190.800 C 236.675 190.800,236.400 190.620,236.400 190.400 C 236.400 190.180,236.040 190.000,235.600 190.000 C 235.160 190.000,234.800 189.820,234.800 189.600 C 234.800 188.770,213.824 189.090,213.062 189.931 M54.656 189.878 C 54.205 190.328,54.381 190.800,55.000 190.800 C 55.330 190.800,55.600 190.631,55.600 190.424 C 55.600 189.919,54.975 189.558,54.656 189.878 M167.000 190.400 C 166.864 190.620,166.487 190.800,166.163 190.800 C 165.385 190.800,162.800 193.403,162.800 194.187 C 162.800 194.524,162.620 194.800,162.400 194.800 C 162.180 194.800,162.000 195.160,162.000 195.600 C 162.000 196.040,161.820 196.400,161.600 196.400 C 161.380 196.400,161.200 196.749,161.200 197.176 C 161.200 197.603,161.020 198.064,160.800 198.200 C 160.580 198.336,160.400 198.887,160.400 199.424 C 160.400 199.961,160.220 200.400,160.000 200.400 C 159.780 200.400,159.600 200.760,159.600 201.200 C 159.600 201.640,159.420 202.000,159.200 202.000 C 158.980 202.000,158.800 202.349,158.800 202.776 C 158.800 203.203,158.620 203.664,158.400 203.800 C 158.180 203.936,158.000 204.487,158.000 205.024 C 158.000 205.561,157.820 206.000,157.600 206.000 C 157.380 206.000,157.200 206.540,157.200 207.200 C 157.200 207.860,157.020 208.400,156.800 208.400 C 156.580 208.400,156.400 208.760,156.400 209.200 C 156.400 209.640,156.220 210.000,156.000 210.000 C 155.780 210.000,155.600 210.360,155.600 210.800 C 155.600 211.240,155.420 211.600,155.200 211.600 C 154.980 211.600,154.800 212.140,154.800 212.800 C 154.800 213.460,154.620 214.000,154.400 214.000 C 154.180 214.000,154.000 214.360,154.000 214.800 C 154.000 215.240,153.820 215.600,153.600 215.600 C 153.380 215.600,153.200 216.039,153.200 216.576 C 153.200 217.113,153.020 217.664,152.800 217.800 C 152.580 217.936,152.400 218.397,152.400 218.824 C 152.400 219.251,152.220 219.600,152.000 219.600 C 151.780 219.600,151.600 219.960,151.600 220.400 C 151.600 220.840,151.420 221.200,151.200 221.200 C 150.980 221.200,150.800 221.740,150.800 222.400 C 150.800 223.060,150.611 223.600,150.380 223.600 C 150.122 223.600,150.006 224.484,150.080 225.900 C 150.199 228.182,150.210 228.201,151.521 228.327 C 153.076 228.476,155.600 226.122,155.600 224.522 C 155.600 224.015,155.780 223.600,156.000 223.600 C 156.220 223.600,156.400 223.240,156.400 222.800 C 156.400 222.360,156.580 222.000,156.800 222.000 C 157.020 222.000,157.200 221.561,157.200 221.024 C 157.200 220.487,157.380 219.936,157.600 219.800 C 157.820 219.664,158.000 219.203,158.000 218.776 C 158.000 218.349,158.180 218.000,158.400 218.000 C 158.620 218.000,158.800 217.561,158.800 217.024 C 158.800 216.487,158.980 215.936,159.200 215.800 C 159.420 215.664,159.600 215.203,159.600 214.776 C 159.600 214.349,159.780 214.000,160.000 214.000 C 160.220 214.000,160.400 213.640,160.400 213.200 C 160.400 212.760,160.580 212.400,160.800 212.400 C 161.020 212.400,161.200 211.860,161.200 211.200 C 161.200 210.540,161.380 210.000,161.600 210.000 C 161.820 210.000,162.000 209.728,162.000 209.395 C 162.000 209.062,162.208 208.387,162.462 207.895 C 163.433 206.018,163.600 205.593,163.600 205.005 C 163.600 204.672,163.780 204.400,164.000 204.400 C 164.220 204.400,164.400 204.040,164.400 203.600 C 164.400 203.160,164.580 202.800,164.800 202.800 C 165.020 202.800,165.200 202.260,165.200 201.600 C 165.200 200.940,165.380 200.400,165.600 200.400 C 165.820 200.400,166.000 200.040,166.000 199.600 C 166.000 199.160,166.180 198.800,166.400 198.800 C 166.620 198.800,166.800 198.522,166.800 198.182 C 166.800 197.278,168.627 195.600,169.610 195.600 C 170.788 195.600,172.400 197.561,172.400 198.995 C 172.400 199.328,172.580 199.600,172.800 199.600 C 173.020 199.600,173.200 199.872,173.200 200.205 C 173.200 200.793,173.367 201.218,174.338 203.095 C 174.592 203.587,174.800 204.262,174.800 204.595 C 174.800 204.928,174.980 205.200,175.200 205.200 C 175.420 205.200,175.600 205.560,175.600 206.000 C 175.600 206.440,175.780 206.800,176.000 206.800 C 176.220 206.800,176.400 207.340,176.400 208.000 C 176.400 208.660,176.580 209.200,176.800 209.200 C 177.020 209.200,177.200 209.542,177.200 209.959 C 177.200 210.377,177.740 211.745,178.400 213.000 C 179.060 214.255,179.600 215.612,179.600 216.017 C 179.600 216.422,179.780 216.864,180.000 217.000 C 180.220 217.136,180.400 217.597,180.400 218.024 C 180.400 218.451,180.580 218.800,180.800 218.800 C 181.020 218.800,181.200 219.160,181.200 219.600 C 181.200 220.040,181.380 220.400,181.600 220.400 C 181.820 220.400,182.000 220.839,182.000 221.376 C 182.000 221.913,182.180 222.464,182.400 222.600 C 182.620 222.736,182.800 223.253,182.800 223.748 C 182.800 224.244,183.160 225.036,183.600 225.508 C 184.040 225.980,184.401 226.599,184.403 226.883 C 184.407 227.471,186.186 228.400,187.308 228.400 C 188.806 228.400,189.978 225.728,188.800 225.000 C 188.580 224.864,188.400 224.313,188.400 223.776 C 188.400 223.239,188.220 222.800,188.000 222.800 C 187.780 222.800,187.600 222.260,187.600 221.600 C 187.600 220.940,187.420 220.400,187.200 220.400 C 186.980 220.400,186.796 219.995,186.791 219.500 C 186.786 219.005,186.430 218.150,186.000 217.600 C 185.570 217.050,185.214 216.195,185.209 215.700 C 185.204 215.205,185.020 214.800,184.800 214.800 C 184.580 214.800,184.400 214.260,184.400 213.600 C 184.400 212.940,184.220 212.400,184.000 212.400 C 183.780 212.400,183.600 212.040,183.600 211.600 C 183.600 211.160,183.420 210.800,183.200 210.800 C 182.980 210.800,182.800 210.528,182.800 210.195 C 182.800 209.862,182.641 209.277,182.447 208.895 C 182.252 208.513,181.871 207.660,181.600 207.000 C 181.329 206.340,180.948 205.487,180.753 205.105 C 180.559 204.723,180.400 204.048,180.400 203.605 C 180.400 203.162,180.220 202.800,180.000 202.800 C 179.780 202.800,179.600 202.440,179.600 202.000 C 179.600 201.560,179.420 201.200,179.200 201.200 C 178.980 201.200,178.800 200.840,178.800 200.400 C 178.800 199.960,178.620 199.600,178.400 199.600 C 178.180 199.600,178.000 199.060,178.000 198.400 C 178.000 197.740,177.820 197.200,177.600 197.200 C 177.380 197.200,177.200 196.840,177.200 196.400 C 177.200 195.960,177.020 195.600,176.800 195.600 C 176.580 195.600,176.400 195.240,176.400 194.800 C 176.400 194.360,176.220 194.000,176.000 194.000 C 175.780 194.000,175.600 193.722,175.600 193.382 C 175.600 192.410,173.741 190.800,172.618 190.800 C 172.058 190.800,171.600 190.620,171.600 190.400 C 171.600 190.180,170.621 190.000,169.424 190.000 C 168.227 190.000,167.136 190.180,167.000 190.400 M275.300 191.083 C 274.553 192.691,274.606 225.911,275.357 226.900 C 276.152 227.947,278.800 227.870,278.800 226.800 C 278.800 226.360,278.980 226.000,279.200 226.000 C 279.460 226.000,279.600 220.075,279.600 209.024 C 279.600 198.137,279.457 191.959,279.200 191.800 C 278.980 191.664,278.800 191.203,278.800 190.776 C 278.800 189.444,275.945 189.694,275.300 191.083 M52.941 190.870 C 52.754 191.171,52.105 191.634,51.500 191.900 C 50.318 192.419,50.018 193.200,51.000 193.200 C 51.330 193.200,51.600 193.020,51.600 192.800 C 51.600 192.580,51.883 192.400,52.229 192.400 C 53.174 192.400,54.198 191.238,53.696 190.736 C 53.412 190.452,53.176 190.494,52.941 190.870 M235.512 191.431 C 236.650 191.998,238.048 193.033,238.618 193.731 C 239.189 194.429,239.913 195.317,240.228 195.705 C 241.384 197.128,241.004 203.759,239.653 205.728 C 237.905 208.275,238.370 212.636,240.486 213.533 C 240.658 213.607,240.800 215.456,240.800 217.642 C 240.800 222.545,240.069 223.915,236.137 226.381 L 233.554 228.000 227.077 227.953 C 219.310 227.897,215.518 227.567,215.307 226.927 C 214.940 225.813,216.922 225.520,224.449 225.573 C 229.410 225.608,232.000 225.484,232.000 225.213 C 232.000 224.986,232.511 224.800,233.135 224.800 C 234.483 224.800,237.600 221.744,237.600 220.423 C 237.600 219.971,237.780 219.600,238.000 219.600 C 238.220 219.600,238.400 218.891,238.400 218.024 C 238.400 217.157,238.220 216.336,238.000 216.200 C 237.780 216.064,237.600 215.603,237.600 215.176 C 237.600 214.749,237.420 214.400,237.200 214.400 C 236.980 214.400,236.800 214.140,236.800 213.823 C 236.800 213.505,236.260 212.926,235.600 212.536 C 234.940 212.146,234.400 211.686,234.400 211.514 C 234.400 211.341,234.051 211.200,233.624 211.200 C 233.197 211.200,232.736 211.020,232.600 210.800 C 232.451 210.559,229.693 210.399,225.676 210.398 C 218.840 210.395,216.000 209.988,216.000 209.008 C 216.000 208.103,217.314 207.929,224.230 207.922 C 227.846 207.919,230.904 207.755,231.026 207.558 C 231.148 207.361,231.857 207.200,232.603 207.200 C 234.110 207.200,237.600 204.339,237.600 203.104 C 237.600 202.743,237.780 202.336,238.000 202.200 C 238.220 202.064,238.400 201.254,238.400 200.400 C 238.400 199.546,238.220 198.736,238.000 198.600 C 237.780 198.464,237.600 198.055,237.600 197.692 C 237.600 196.597,234.375 193.600,233.197 193.600 C 232.627 193.600,231.989 193.435,231.780 193.233 C 231.571 193.031,228.105 192.775,224.077 192.663 C 217.125 192.470,215.600 192.204,215.600 191.180 C 215.600 189.883,232.841 190.100,235.512 191.431 M171.652 192.384 C 172.133 193.036,172.724 193.457,172.964 193.320 C 173.204 193.184,173.286 193.200,173.147 193.356 C 173.007 193.512,173.038 194.283,173.215 195.068 L 173.537 196.496 172.255 195.253 C 169.868 192.940,166.736 193.984,165.014 197.667 C 164.341 199.106,164.010 199.448,163.570 199.160 C 163.090 198.845,163.111 198.720,163.700 198.373 C 164.085 198.146,164.400 197.692,164.400 197.364 C 164.400 197.036,164.764 196.055,165.208 195.184 C 165.710 194.201,165.843 193.600,165.559 193.600 C 164.764 193.600,165.932 192.504,167.016 192.232 C 167.557 192.096,168.000 191.808,168.000 191.592 C 168.000 190.604,170.781 191.207,171.652 192.384 M303.700 192.144 C 301.422 193.272,303.540 196.400,306.582 196.400 C 308.681 196.400,309.013 195.753,307.100 195.390 C 304.218 194.843,303.669 193.101,306.228 192.621 C 306.982 192.480,307.600 192.192,307.600 191.982 C 307.600 191.470,304.828 191.585,303.700 192.144 M324.800 191.965 C 324.800 192.166,325.520 192.451,326.400 192.600 C 328.623 192.976,328.170 194.364,325.525 195.286 C 324.099 195.783,324.448 196.400,326.154 196.400 C 328.478 196.400,330.094 193.637,328.629 192.171 C 328.005 191.548,324.800 191.375,324.800 191.965 M278.400 208.814 L 278.400 225.227 277.346 225.086 L 276.292 224.945 276.202 208.973 C 276.103 191.511,276.037 192.400,277.424 192.400 L 278.400 192.400 278.400 208.814 M48.800 193.600 C 48.800 193.820,48.440 194.000,48.000 194.000 C 47.560 194.000,47.200 194.180,47.200 194.400 C 47.200 194.620,46.930 194.800,46.600 194.800 C 46.270 194.800,46.000 194.980,46.000 195.200 C 46.000 195.420,45.730 195.600,45.400 195.600 C 45.070 195.600,44.800 195.767,44.800 195.972 C 44.800 196.177,44.395 196.402,43.900 196.472 L 43.000 196.600 42.895 210.311 C 42.787 224.281,42.931 225.686,44.317 224.195 C 44.473 224.027,44.375 223.810,44.100 223.712 C 43.349 223.444,43.373 197.200,44.125 197.200 C 44.413 197.200,45.036 196.840,45.508 196.400 C 45.980 195.960,46.644 195.600,46.983 195.600 C 47.322 195.600,47.600 195.464,47.600 195.298 C 47.600 195.131,48.140 194.756,48.800 194.464 C 50.071 193.901,50.404 193.200,49.400 193.200 C 49.070 193.200,48.800 193.380,48.800 193.600 M310.400 196.000 C 310.400 196.246,312.408 196.400,315.624 196.400 C 319.004 196.400,320.760 196.259,320.600 196.000 C 320.457 195.768,318.263 195.600,315.376 195.600 C 312.325 195.600,310.400 195.755,310.400 196.000 M175.485 197.564 C 175.876 198.191,175.845 198.374,175.314 198.578 C 174.489 198.894,173.821 198.243,174.134 197.427 C 174.455 196.590,174.905 196.636,175.485 197.564 M176.720 200.080 C 176.984 200.344,177.200 200.884,177.200 201.280 C 177.200 201.676,177.344 202.000,177.520 202.000 C 177.809 202.000,178.800 204.268,178.800 204.928 C 178.800 205.078,178.545 205.200,178.233 205.200 C 177.922 205.200,177.576 205.425,177.465 205.700 C 177.354 205.975,177.249 205.810,177.232 205.333 C 177.214 204.857,177.065 204.407,176.900 204.333 C 176.549 204.177,174.800 200.560,174.800 199.989 C 174.800 199.441,176.144 199.504,176.720 200.080 M162.728 203.048 C 162.798 203.089,162.675 203.455,162.454 203.861 C 162.233 204.267,161.817 205.185,161.529 205.900 C 161.240 206.615,160.869 207.200,160.702 207.200 C 160.536 207.200,160.400 207.650,160.400 208.200 C 160.400 208.750,160.220 209.200,160.000 209.200 C 159.780 209.200,159.583 209.695,159.561 210.300 C 159.537 210.991,159.345 210.583,159.043 209.200 C 158.658 207.434,158.666 206.875,159.082 206.369 C 159.367 206.021,159.601 205.481,159.601 205.169 C 159.605 203.779,161.201 201.905,161.916 202.451 C 162.292 202.738,162.657 203.007,162.728 203.048 M365.200 203.800 C 365.200 204.130,365.380 204.400,365.600 204.400 C 365.820 204.400,366.000 204.130,366.000 203.800 C 366.000 203.470,365.820 203.200,365.600 203.200 C 365.380 203.200,365.200 203.470,365.200 203.800 M366.000 205.400 C 366.000 205.730,366.136 206.000,366.302 206.000 C 366.469 206.000,366.844 206.540,367.136 207.200 C 367.699 208.471,368.400 208.804,368.400 207.800 C 368.400 207.470,368.220 207.200,368.000 207.200 C 367.780 207.200,367.600 206.930,367.600 206.600 C 367.600 206.270,367.420 206.000,367.200 206.000 C 366.980 206.000,366.800 205.730,366.800 205.400 C 366.800 205.070,366.620 204.800,366.400 204.800 C 366.180 204.800,366.000 205.070,366.000 205.400 M179.587 206.900 C 179.576 208.100,179.532 208.143,179.015 207.461 C 178.707 207.055,178.552 206.470,178.670 206.161 C 179.061 205.143,179.600 205.577,179.587 206.900 M321.199 208.289 C 321.748 208.390,322.288 208.595,322.399 208.745 C 322.653 209.091,324.700 210.400,324.986 210.400 C 325.315 210.400,325.240 208.871,324.900 208.664 C 324.735 208.563,323.610 208.396,322.400 208.293 C 321.190 208.191,320.649 208.189,321.199 208.289 M305.078 209.754 C 304.265 210.499,303.600 211.399,303.600 211.754 C 303.600 212.109,303.420 212.400,303.200 212.400 C 302.691 212.400,302.673 215.074,303.180 215.388 C 303.389 215.517,303.681 214.942,303.830 214.111 C 304.214 211.963,306.316 209.295,307.596 209.331 C 309.918 209.397,311.600 209.174,311.600 208.800 C 311.600 207.649,306.573 208.384,305.078 209.754 M314.400 208.800 C 314.400 209.026,315.533 209.200,317.000 209.200 C 318.467 209.200,319.600 209.026,319.600 208.800 C 319.600 208.574,318.467 208.400,317.000 208.400 C 315.533 208.400,314.400 208.574,314.400 208.800 M158.753 212.263 C 158.790 212.937,158.626 213.080,158.000 212.916 C 157.081 212.676,156.984 211.823,157.700 210.287 L 158.200 209.214 158.453 210.307 C 158.592 210.908,158.727 211.788,158.753 212.263 M324.183 211.700 C 324.038 212.081,322.298 212.170,316.896 212.076 L 309.800 211.952 308.516 213.076 C 307.477 213.985,307.275 214.409,307.461 215.295 C 307.717 216.513,308.400 216.406,308.400 215.148 C 308.400 213.362,309.099 213.200,316.800 213.200 C 324.129 213.200,325.200 213.000,325.200 211.629 C 325.200 211.034,324.417 211.089,324.183 211.700 M182.621 215.890 C 182.420 216.413,182.283 216.437,181.887 216.017 C 181.504 215.610,181.507 215.461,181.900 215.317 C 182.175 215.216,182.421 214.833,182.446 214.467 C 182.486 213.904,182.522 213.912,182.680 214.523 C 182.783 214.921,182.757 215.536,182.621 215.890 M155.847 218.000 C 156.494 218.000,156.215 220.872,155.543 221.133 C 155.354 221.207,155.200 221.522,155.200 221.835 C 155.200 223.233,153.026 225.955,152.321 225.439 C 151.651 224.949,152.380 221.087,153.320 220.147 C 153.474 219.993,153.600 219.537,153.600 219.133 C 153.600 218.730,153.768 218.400,153.973 218.400 C 154.178 218.400,154.483 217.995,154.650 217.500 C 154.904 216.750,154.980 216.717,155.106 217.300 C 155.190 217.685,155.524 218.000,155.847 218.000 M183.900 218.114 C 184.651 217.842,184.501 218.703,183.722 219.140 C 183.192 219.436,182.929 219.298,182.522 218.514 C 181.821 217.163,181.865 216.958,182.700 217.686 C 183.085 218.021,183.625 218.214,183.900 218.114 M307.693 221.200 C 307.693 221.970,307.775 222.285,307.876 221.900 C 307.976 221.515,307.976 220.885,307.876 220.500 C 307.775 220.115,307.693 220.430,307.693 221.200 M186.000 221.592 C 186.000 222.011,185.837 222.454,185.638 222.577 C 185.438 222.700,185.370 223.163,185.486 223.606 C 185.638 224.188,185.538 224.351,185.128 224.194 C 183.846 223.702,183.645 221.009,184.883 220.916 C 185.743 220.851,186.000 221.007,186.000 221.592 M302.800 225.400 C 302.800 228.526,302.907 229.200,303.405 229.200 C 303.738 229.200,304.357 229.416,304.781 229.681 C 306.051 230.474,307.600 229.404,307.600 227.732 C 307.600 226.173,307.109 226.003,306.495 227.350 C 305.246 230.093,303.500 227.307,303.500 222.569 C 303.500 222.036,303.343 221.600,303.150 221.600 C 302.957 221.600,302.800 223.310,302.800 225.400 M44.800 224.800 C 44.800 225.020,45.070 225.200,45.400 225.200 C 45.730 225.200,46.000 225.380,46.000 225.600 C 46.000 225.820,46.270 226.000,46.600 226.000 C 46.930 226.000,47.200 226.180,47.200 226.400 C 47.200 226.620,47.560 226.800,48.000 226.800 C 48.440 226.800,48.800 226.980,48.800 227.200 C 48.800 227.420,49.070 227.600,49.400 227.600 C 49.730 227.600,50.000 227.780,50.000 228.000 C 50.000 228.220,50.360 228.400,50.800 228.400 C 51.240 228.400,51.600 228.580,51.600 228.800 C 51.600 229.020,51.870 229.200,52.200 229.200 C 52.530 229.200,52.800 229.380,52.800 229.600 C 52.800 229.820,53.070 230.000,53.400 230.000 C 53.730 230.000,54.000 229.897,54.000 229.771 C 54.000 229.302,52.835 228.400,52.229 228.400 C 51.883 228.400,51.600 228.220,51.600 228.000 C 51.600 227.780,51.322 227.600,50.983 227.600 C 50.644 227.600,49.980 227.240,49.508 226.800 C 49.036 226.360,48.413 226.000,48.125 226.000 C 47.836 226.000,47.600 225.820,47.600 225.600 C 47.600 225.380,47.240 225.200,46.800 225.200 C 46.360 225.200,46.000 225.020,46.000 224.800 C 46.000 224.580,45.730 224.400,45.400 224.400 C 45.070 224.400,44.800 224.580,44.800 224.800 M54.400 230.400 C 54.400 230.620,54.670 230.800,55.000 230.800 C 55.330 230.800,55.600 230.946,55.600 231.125 C 55.600 231.304,56.230 231.698,57.000 232.000 C 57.770 232.302,58.400 232.696,58.400 232.875 C 58.400 233.054,58.670 233.200,59.000 233.200 C 59.330 233.200,59.600 233.346,59.600 233.525 C 59.600 233.704,60.230 234.098,61.000 234.400 C 61.770 234.702,62.400 235.096,62.400 235.275 C 62.400 235.454,62.670 235.600,63.000 235.600 C 63.330 235.600,63.989 235.989,64.465 236.465 L 65.331 237.331 64.265 238.180 C 63.066 239.137,62.914 239.600,63.800 239.600 C 64.130 239.600,64.400 239.420,64.400 239.200 C 64.400 238.980,64.580 238.800,64.800 238.800 C 65.060 238.800,65.200 244.267,65.200 254.400 L 65.200 270.000 66.400 270.000 C 67.760 270.000,68.007 269.383,66.800 269.000 C 66.018 268.752,66.000 268.395,66.000 253.206 C 66.000 237.307,66.058 236.400,67.071 236.400 C 67.644 236.400,68.800 235.483,68.800 235.029 C 68.800 234.903,68.530 234.800,68.200 234.800 C 67.870 234.800,67.599 234.935,67.597 235.100 C 67.587 236.003,65.509 236.346,64.687 235.580 C 64.226 235.151,63.613 234.800,63.325 234.800 C 63.036 234.800,62.800 234.620,62.800 234.400 C 62.800 234.180,62.440 234.000,62.000 234.000 C 61.560 234.000,61.200 233.820,61.200 233.600 C 61.200 233.380,60.922 233.200,60.583 233.200 C 60.244 233.200,59.580 232.840,59.108 232.400 C 58.636 231.960,58.013 231.600,57.725 231.600 C 57.436 231.600,57.200 231.420,57.200 231.200 C 57.200 230.980,56.840 230.800,56.400 230.800 C 55.960 230.800,55.600 230.620,55.600 230.400 C 55.600 230.180,55.330 230.000,55.000 230.000 C 54.670 230.000,54.400 230.180,54.400 230.400 M72.630 232.424 C 72.207 232.851,71.622 233.200,71.330 233.200 C 70.706 233.200,70.624 233.844,71.203 234.202 C 71.424 234.339,71.714 234.169,71.846 233.825 C 71.978 233.481,72.390 233.200,72.763 233.200 C 73.469 233.200,74.400 232.472,74.400 231.920 C 74.400 231.349,73.419 231.628,72.630 232.424 M69.277 234.430 C 69.356 234.667,69.591 234.860,69.800 234.860 C 70.009 234.860,70.245 234.667,70.323 234.430 C 70.402 234.194,70.167 234.000,69.800 234.000 C 69.433 234.000,69.198 234.194,69.277 234.430 M61.600 239.925 C 61.600 240.104,60.970 240.498,60.200 240.800 C 59.430 241.102,58.800 241.483,58.800 241.647 C 58.800 241.810,58.395 242.015,57.900 242.102 C 57.048 242.251,57.041 242.277,57.776 242.602 C 58.287 242.827,58.606 242.783,58.709 242.472 C 58.796 242.212,59.212 242.000,59.633 242.000 C 60.055 242.000,60.400 241.820,60.400 241.600 C 60.400 241.380,60.683 241.200,61.029 241.200 C 61.635 241.200,62.800 240.298,62.800 239.829 C 62.800 239.703,62.530 239.600,62.200 239.600 C 61.870 239.600,61.600 239.746,61.600 239.925 M55.900 243.357 C 55.515 243.649,55.200 244.003,55.200 244.144 C 55.200 244.601,56.042 244.415,56.629 243.829 C 57.688 242.769,57.140 242.415,55.900 243.357 M19.600 243.937 C 19.600 244.123,20.455 244.708,21.500 245.237 C 22.545 245.767,23.460 246.335,23.533 246.500 C 23.607 246.665,24.012 246.800,24.433 246.800 C 24.855 246.800,25.200 246.952,25.200 247.137 C 25.200 247.323,26.055 247.908,27.100 248.437 C 28.145 248.967,29.060 249.535,29.133 249.700 C 29.324 250.129,30.400 250.072,30.400 249.634 C 30.400 249.432,29.860 249.028,29.200 248.736 C 28.540 248.444,28.000 248.069,28.000 247.902 C 28.000 247.736,27.640 247.600,27.200 247.600 C 26.760 247.600,26.400 247.420,26.400 247.200 C 26.400 246.980,26.130 246.800,25.800 246.800 C 25.470 246.800,25.200 246.654,25.200 246.475 C 25.200 246.296,24.570 245.902,23.800 245.600 C 23.030 245.298,22.400 244.904,22.400 244.725 C 22.400 244.546,22.040 244.400,21.600 244.400 C 21.160 244.400,20.800 244.220,20.800 244.000 C 20.800 243.780,20.530 243.600,20.200 243.600 C 19.870 243.600,19.600 243.752,19.600 243.937 M52.575 245.101 C 52.149 245.486,50.945 246.234,49.900 246.763 C 48.003 247.724,47.466 248.400,48.600 248.400 C 48.930 248.400,49.200 248.220,49.200 248.000 C 49.200 247.780,49.560 247.600,50.000 247.600 C 50.440 247.600,50.800 247.420,50.800 247.200 C 50.800 246.980,51.036 246.800,51.325 246.800 C 51.613 246.800,52.236 246.440,52.708 246.000 C 53.180 245.560,53.844 245.200,54.183 245.200 C 54.522 245.200,54.800 245.020,54.800 244.800 C 54.800 244.154,53.416 244.341,52.575 245.101 M45.305 249.325 C 43.903 250.272,43.651 250.800,44.600 250.800 C 44.930 250.800,45.200 250.620,45.200 250.400 C 45.200 250.180,45.483 250.000,45.829 250.000 C 46.174 250.000,46.714 249.743,47.029 249.429 C 48.334 248.123,47.186 248.054,45.305 249.325 M100.843 249.349 C 100.577 249.669,99.558 250.307,98.580 250.768 C 96.820 251.595,96.238 252.400,97.400 252.400 C 97.730 252.400,98.000 252.220,98.000 252.000 C 98.000 251.780,98.360 251.600,98.800 251.600 C 99.240 251.600,99.600 251.420,99.600 251.200 C 99.600 250.980,99.883 250.800,100.229 250.800 C 101.144 250.800,102.198 249.638,101.717 249.157 C 101.462 248.902,101.158 248.969,100.843 249.349 M30.800 250.337 C 30.800 250.523,31.655 251.108,32.700 251.637 C 33.745 252.167,34.660 252.735,34.733 252.900 C 34.888 253.248,36.000 253.311,36.000 252.971 C 36.000 252.439,34.794 251.600,34.029 251.600 C 33.573 251.600,33.200 251.420,33.200 251.200 C 33.200 250.980,32.930 250.800,32.600 250.800 C 32.270 250.800,32.000 250.620,32.000 250.400 C 32.000 250.180,31.730 250.000,31.400 250.000 C 31.070 250.000,30.800 250.152,30.800 250.337 M42.400 251.200 C 42.400 251.420,42.040 251.600,41.600 251.600 C 41.160 251.600,40.800 251.780,40.800 252.000 C 40.800 252.220,40.530 252.400,40.200 252.400 C 39.870 252.400,39.600 252.580,39.600 252.800 C 39.600 253.020,38.880 253.200,38.000 253.200 C 37.120 253.200,36.400 253.380,36.400 253.600 C 36.400 253.820,37.120 254.000,38.000 254.000 C 38.880 254.000,39.600 253.820,39.600 253.600 C 39.600 253.380,39.878 253.200,40.217 253.200 C 40.556 253.200,41.220 252.840,41.692 252.400 C 42.164 251.960,42.787 251.600,43.075 251.600 C 43.364 251.600,43.600 251.420,43.600 251.200 C 43.600 250.980,43.330 250.800,43.000 250.800 C 42.670 250.800,42.400 250.980,42.400 251.200 M95.417 252.373 C 95.266 252.616,94.256 253.265,93.172 253.814 C 92.087 254.364,91.200 255.010,91.200 255.250 C 91.200 255.489,90.935 255.584,90.611 255.459 C 90.286 255.335,89.881 255.455,89.711 255.725 C 89.540 255.996,88.905 256.434,88.300 256.700 C 87.118 257.219,86.818 258.000,87.800 258.000 C 88.130 258.000,88.400 257.820,88.400 257.600 C 88.400 257.380,88.760 257.200,89.200 257.200 C 89.640 257.200,90.000 257.020,90.000 256.800 C 90.000 256.580,90.236 256.400,90.525 256.400 C 90.813 256.400,91.436 256.040,91.908 255.600 C 92.380 255.160,93.044 254.800,93.383 254.800 C 93.722 254.800,94.000 254.620,94.000 254.400 C 94.000 254.180,94.283 254.000,94.629 254.000 C 95.569 254.000,96.598 252.838,96.099 252.339 C 95.821 252.061,95.603 252.071,95.417 252.373 M85.770 258.133 C 85.630 258.500,85.251 258.800,84.929 258.800 C 84.356 258.800,83.200 259.717,83.200 260.171 C 83.200 260.297,83.470 260.400,83.800 260.400 C 84.130 260.400,84.400 260.220,84.400 260.000 C 84.400 259.780,84.625 259.594,84.900 259.587 C 85.904 259.562,86.991 258.431,86.492 257.932 C 86.138 257.578,85.965 257.626,85.770 258.133 M81.856 260.278 C 81.405 260.728,81.581 261.200,82.200 261.200 C 82.530 261.200,82.800 261.031,82.800 260.824 C 82.800 260.319,82.175 259.958,81.856 260.278 M79.028 261.946 C 77.685 262.735,77.234 263.600,78.167 263.600 C 78.515 263.600,78.800 263.420,78.800 263.200 C 78.800 262.980,79.083 262.800,79.429 262.800 C 80.035 262.800,81.200 261.898,81.200 261.429 C 81.200 261.014,80.218 261.248,79.028 261.946 M76.000 264.000 C 76.000 264.220,76.270 264.400,76.600 264.400 C 76.930 264.400,77.200 264.220,77.200 264.000 C 77.200 263.780,76.930 263.600,76.600 263.600 C 76.270 263.600,76.000 263.780,76.000 264.000 M74.400 264.800 C 74.400 265.020,74.130 265.200,73.800 265.200 C 73.470 265.200,73.200 265.380,73.200 265.600 C 73.200 265.820,72.930 266.000,72.600 266.000 C 72.270 266.000,72.000 266.180,72.000 266.400 C 72.000 266.620,71.640 266.800,71.200 266.800 C 70.760 266.800,70.400 266.980,70.400 267.200 C 70.400 267.420,70.117 267.600,69.771 267.600 C 69.099 267.600,67.781 268.715,68.089 269.023 C 68.352 269.286,73.200 266.735,73.200 266.333 C 73.200 266.150,73.483 266.000,73.829 266.000 C 74.435 266.000,75.600 265.098,75.600 264.629 C 75.600 264.503,75.330 264.400,75.000 264.400 C 74.670 264.400,74.400 264.580,74.400 264.800 " stroke="none" fill="#844cb4" fill-rule="evenodd"></path><path id="path2" d="M57.400 157.086 C 56.960 157.193,56.240 157.598,55.800 157.987 C 55.360 158.377,54.462 158.823,53.804 158.979 C 53.146 159.136,52.510 159.422,52.390 159.616 C 52.208 159.911,48.375 162.030,44.903 163.754 C 44.410 163.999,44.005 164.335,44.003 164.500 C 44.001 164.665,43.640 164.800,43.200 164.800 C 42.760 164.800,42.400 164.980,42.400 165.200 C 42.400 165.420,42.040 165.600,41.600 165.600 C 41.160 165.600,40.800 165.752,40.800 165.937 C 40.800 166.123,39.945 166.705,38.900 167.232 C 37.855 167.758,36.910 168.282,36.800 168.395 C 36.226 168.987,34.419 169.659,34.038 169.424 C 33.797 169.275,33.600 169.405,33.600 169.714 C 33.600 170.022,32.745 170.705,31.700 171.232 C 30.655 171.758,29.710 172.282,29.600 172.395 C 29.490 172.508,28.860 172.891,28.200 173.248 C 23.345 175.868,22.124 176.569,21.568 177.052 C 21.220 177.354,20.801 177.468,20.638 177.304 C 20.474 177.141,20.162 177.324,19.945 177.712 C 19.728 178.100,19.388 178.316,19.190 178.194 C 18.992 178.071,18.463 178.337,18.015 178.785 C 17.567 179.233,16.930 179.600,16.600 179.600 C 16.270 179.600,16.000 179.777,16.000 179.992 C 16.000 180.208,15.550 180.498,15.000 180.636 L 14.000 180.887 14.000 194.243 C 14.000 202.881,14.141 207.600,14.400 207.600 C 14.660 207.600,14.802 213.170,14.805 223.500 C 14.811 239.931,14.888 241.200,15.885 241.200 C 16.210 241.200,16.954 241.521,17.538 241.914 C 18.122 242.307,19.095 242.878,19.700 243.182 C 20.305 243.486,20.800 243.885,20.800 244.068 C 20.800 244.250,21.160 244.400,21.600 244.400 C 22.040 244.400,22.400 244.580,22.400 244.800 C 22.400 245.020,22.760 245.200,23.200 245.200 C 23.640 245.200,24.000 245.380,24.000 245.600 C 24.000 245.820,24.236 246.000,24.525 246.000 C 24.813 246.000,25.436 246.360,25.908 246.800 C 26.380 247.240,27.044 247.600,27.383 247.600 C 27.722 247.600,28.000 247.780,28.000 248.000 C 28.000 248.220,28.360 248.400,28.800 248.400 C 29.240 248.400,29.600 248.580,29.600 248.800 C 29.600 249.020,29.870 249.200,30.200 249.200 C 30.530 249.200,30.800 249.380,30.800 249.600 C 30.800 249.820,31.070 250.000,31.400 250.000 C 31.730 250.000,32.000 250.180,32.000 250.400 C 32.000 250.620,32.360 250.800,32.800 250.800 C 33.240 250.800,33.600 250.980,33.600 251.200 C 33.600 251.420,33.960 251.600,34.400 251.600 C 34.840 251.600,35.200 251.780,35.200 252.000 C 35.200 252.220,35.481 252.400,35.824 252.400 C 36.167 252.400,36.364 252.535,36.263 252.700 C 36.161 252.865,36.643 253.041,37.334 253.091 C 38.615 253.185,40.800 252.441,40.800 251.913 C 40.800 251.472,43.060 250.393,43.358 250.692 C 43.501 250.835,43.902 250.546,44.250 250.051 C 44.802 249.262,45.482 248.847,47.000 248.370 C 47.220 248.301,47.760 247.902,48.200 247.484 C 49.056 246.670,50.785 245.822,51.334 245.947 C 51.517 245.988,52.025 245.567,52.463 245.011 C 52.900 244.455,53.532 244.000,53.867 244.000 C 54.389 244.000,56.583 242.696,57.200 242.019 C 57.310 241.899,58.120 241.423,59.000 240.962 C 64.308 238.180,65.144 237.487,64.257 236.600 C 63.927 236.270,63.374 236.000,63.029 236.000 C 62.683 236.000,62.400 235.864,62.400 235.698 C 62.400 235.531,61.815 235.142,61.100 234.832 C 60.385 234.523,59.048 233.759,58.128 233.135 C 57.208 232.511,56.341 232.000,56.200 232.000 C 56.059 232.000,55.159 231.460,54.200 230.800 C 53.241 230.140,52.341 229.600,52.200 229.600 C 52.059 229.600,51.159 229.060,50.200 228.400 C 49.241 227.740,48.173 227.200,47.828 227.200 C 47.483 227.200,47.200 227.031,47.200 226.825 C 47.200 226.619,46.165 225.925,44.900 225.283 L 42.600 224.117 42.600 210.402 C 42.600 197.141,42.626 196.673,43.393 196.244 C 43.830 196.000,44.910 195.334,45.793 194.765 C 46.677 194.196,47.985 193.477,48.700 193.168 C 49.415 192.858,50.000 192.469,50.000 192.302 C 50.000 192.136,50.255 192.000,50.567 192.000 C 50.878 192.000,51.193 191.865,51.267 191.700 C 51.434 191.324,53.564 190.025,54.500 189.729 C 54.885 189.607,55.200 189.348,55.200 189.153 C 55.200 188.959,55.476 188.800,55.813 188.800 C 56.149 188.800,56.529 188.530,56.655 188.200 C 56.782 187.870,57.091 187.596,57.343 187.591 C 58.385 187.570,61.805 184.967,61.925 184.103 C 62.018 183.429,61.894 183.266,61.425 183.446 C 60.294 183.880,60.742 182.462,62.230 180.901 C 64.412 178.610,64.617 178.063,63.458 177.622 C 62.117 177.112,62.104 177.021,62.304 169.750 C 62.508 162.335,62.319 161.600,60.205 161.600 C 58.239 161.600,56.736 160.832,57.011 159.967 C 57.133 159.582,57.026 159.139,56.773 158.983 C 56.469 158.796,56.701 158.382,57.457 157.764 C 58.085 157.250,58.510 156.843,58.400 156.861 C 58.290 156.878,57.840 156.980,57.400 157.086 M58.191 167.932 C 58.337 168.994,58.408 170.929,58.348 172.232 C 58.286 173.607,58.455 174.992,58.753 175.534 C 59.349 176.621,59.332 176.651,57.946 176.999 C 56.826 177.280,56.532 175.979,56.270 169.600 C 56.229 168.610,56.058 167.586,55.889 167.325 C 55.582 166.848,56.555 166.036,57.462 166.012 C 57.717 166.005,58.044 166.869,58.191 167.932 M61.200 167.600 C 61.200 168.040,61.020 168.400,60.800 168.400 C 60.580 168.400,60.400 168.940,60.400 169.600 C 60.400 171.206,59.741 171.134,59.494 169.500 C 59.361 168.626,59.510 167.978,59.948 167.524 C 60.824 166.615,61.200 166.638,61.200 167.600 M19.466 179.772 C 18.793 181.526,18.779 183.227,19.424 185.046 C 19.805 186.121,20.136 187.630,20.159 188.400 C 20.188 189.394,20.378 189.788,20.814 189.759 C 21.291 189.727,21.431 190.176,21.439 191.759 C 21.445 192.882,21.753 194.375,22.125 195.080 C 22.496 195.784,22.800 196.965,22.800 197.705 C 22.800 198.496,23.129 199.402,23.600 199.908 C 24.158 200.507,24.400 201.319,24.400 202.596 C 24.400 203.796,24.593 204.499,24.961 204.640 C 25.269 204.759,25.637 205.473,25.779 206.228 C 25.920 206.982,26.196 207.600,26.391 207.600 C 26.586 207.600,26.860 207.960,27.000 208.399 C 27.139 208.839,27.691 209.308,28.227 209.442 C 29.131 209.669,29.200 209.869,29.200 212.243 C 29.200 214.533,29.283 214.800,30.000 214.800 C 30.473 214.800,30.824 215.086,30.859 215.500 C 30.989 217.030,31.058 217.442,31.368 218.505 C 31.545 219.113,31.951 219.756,32.270 219.935 C 32.589 220.114,32.901 220.516,32.964 220.830 C 33.026 221.143,33.285 221.907,33.539 222.526 C 33.792 223.145,34.000 223.758,34.000 223.888 C 34.000 224.018,34.450 224.714,35.000 225.436 C 35.550 226.157,36.000 227.014,36.000 227.340 C 36.000 227.666,36.225 228.018,36.500 228.121 C 36.851 228.252,36.776 228.481,36.247 228.887 C 35.342 229.584,36.367 231.683,37.556 231.570 C 38.645 231.465,39.026 231.595,38.541 231.906 C 36.724 233.070,37.785 234.199,40.800 234.308 C 44.607 234.446,44.955 234.563,44.365 235.508 C 44.064 235.990,43.374 236.255,42.308 236.297 C 40.375 236.375,40.213 236.503,40.759 237.523 C 41.354 238.635,45.869 238.614,45.682 237.500 C 45.618 237.115,45.753 236.800,45.982 236.800 C 46.212 236.800,46.400 237.149,46.400 237.576 C 46.400 238.593,46.779 238.791,49.066 238.972 C 51.275 239.146,51.794 239.806,50.026 240.194 C 49.357 240.341,48.700 240.639,48.566 240.855 C 48.432 241.072,47.876 241.419,47.330 241.627 C 46.487 241.947,46.376 242.180,46.594 243.173 C 46.758 243.921,46.615 244.797,46.196 245.608 C 45.386 247.174,45.655 247.545,46.781 246.419 C 47.248 245.952,47.803 245.678,48.015 245.809 C 48.678 246.219,48.436 246.800,47.600 246.800 C 47.160 246.800,46.800 246.980,46.800 247.200 C 46.800 247.420,46.587 247.600,46.326 247.600 C 46.065 247.600,45.480 247.943,45.026 248.362 C 44.173 249.149,42.363 250.275,40.100 251.429 C 39.385 251.793,38.800 252.221,38.800 252.379 C 38.800 252.873,37.343 252.586,36.263 251.878 C 35.694 251.505,34.974 251.200,34.663 251.200 C 34.352 251.200,33.881 250.939,33.616 250.619 C 33.351 250.300,32.294 249.611,31.267 249.089 C 28.897 247.883,26.482 246.501,25.200 245.616 C 24.650 245.236,23.615 244.673,22.900 244.365 C 22.185 244.057,21.600 243.669,21.600 243.502 C 21.600 243.336,21.240 243.200,20.800 243.200 C 20.360 243.200,20.000 243.020,20.000 242.800 C 20.000 242.580,19.764 242.400,19.475 242.400 C 19.187 242.400,18.564 242.040,18.092 241.600 C 17.620 241.160,16.992 240.800,16.697 240.800 C 15.223 240.800,15.200 240.414,15.200 215.983 C 15.200 188.941,15.436 181.200,16.262 181.200 C 16.558 181.200,16.800 181.062,16.800 180.893 C 16.800 180.552,18.802 179.227,19.343 179.211 C 19.531 179.205,19.587 179.457,19.466 179.772 M23.000 182.400 C 23.136 182.620,23.607 182.800,24.047 182.800 C 25.346 182.800,24.545 183.472,22.935 183.733 C 21.392 183.984,20.400 183.521,20.400 182.551 C 20.400 181.908,22.616 181.779,23.000 182.400 M358.476 191.090 C 356.969 191.371,357.562 192.778,359.956 194.604 C 361.345 195.664,362.403 196.880,362.933 198.024 C 363.385 199.001,363.982 199.940,364.261 200.111 C 364.539 200.281,364.665 200.686,364.541 201.011 C 364.416 201.335,364.514 201.600,364.757 201.600 C 365.001 201.600,365.200 201.870,365.200 202.200 C 365.200 202.530,365.380 202.800,365.600 202.800 C 365.820 202.800,366.004 203.115,366.009 203.500 C 366.014 203.885,366.370 204.650,366.800 205.200 C 367.230 205.750,367.586 206.425,367.591 206.700 C 367.596 206.975,367.783 207.200,368.006 207.200 C 368.230 207.200,368.713 207.830,369.081 208.600 C 369.448 209.370,369.951 210.000,370.199 210.000 C 370.446 210.000,371.036 210.360,371.508 210.800 C 371.980 211.240,372.477 211.600,372.612 211.600 C 373.056 211.600,373.910 212.642,374.110 213.428 C 374.254 213.992,374.320 213.905,374.354 213.103 C 374.391 212.214,374.037 211.766,372.487 210.740 C 370.094 209.157,368.558 207.169,366.189 202.592 C 365.167 200.617,364.076 198.716,363.765 198.369 C 363.454 198.021,363.200 197.566,363.200 197.356 C 363.200 197.146,362.120 195.906,360.800 194.600 C 357.981 191.810,357.918 191.600,359.907 191.600 C 361.966 191.600,364.189 193.180,365.175 195.346 C 365.607 196.294,366.239 197.301,366.580 197.584 C 366.921 197.866,367.204 198.301,367.209 198.549 C 367.214 198.797,367.570 199.450,368.000 200.000 C 368.430 200.550,368.786 201.315,368.791 201.700 C 368.796 202.085,368.952 202.400,369.137 202.400 C 369.323 202.400,369.895 203.218,370.409 204.217 C 372.445 208.177,377.278 209.703,379.878 207.208 C 381.213 205.926,382.400 204.397,382.400 203.959 C 382.400 203.719,382.721 203.046,383.114 202.462 C 383.507 201.878,384.078 200.905,384.382 200.300 C 384.686 199.695,385.085 199.200,385.268 199.200 C 385.450 199.200,385.600 198.917,385.600 198.572 C 385.600 198.227,386.140 197.159,386.800 196.200 C 387.460 195.241,388.000 194.333,388.000 194.182 C 388.000 192.329,394.287 190.087,394.913 191.717 C 395.144 192.319,394.308 193.600,393.684 193.600 C 392.990 193.600,389.600 197.046,389.600 197.752 C 389.600 198.108,389.454 198.400,389.275 198.400 C 389.096 198.400,388.702 199.030,388.400 199.800 C 388.098 200.570,387.704 201.200,387.525 201.200 C 387.346 201.200,387.200 201.455,387.200 201.767 C 387.200 202.078,387.058 202.393,386.885 202.467 C 386.712 202.540,386.063 203.648,385.442 204.929 C 384.355 207.171,381.712 210.399,380.962 210.400 C 380.121 210.402,378.402 212.342,378.440 213.247 L 378.480 214.200 378.749 213.238 C 378.897 212.709,379.364 212.079,379.787 211.838 C 380.210 211.597,380.915 211.085,381.354 210.700 C 381.792 210.315,382.346 210.000,382.584 210.000 C 382.823 210.000,383.357 209.370,383.772 208.600 C 384.187 207.830,384.678 207.200,384.863 207.200 C 385.048 207.200,385.200 206.840,385.200 206.400 C 385.200 205.960,385.380 205.600,385.600 205.600 C 385.820 205.600,386.000 205.240,386.000 204.800 C 386.000 204.360,386.180 204.000,386.400 204.000 C 386.620 204.000,386.800 203.730,386.800 203.400 C 386.800 203.070,386.980 202.800,387.200 202.800 C 387.420 202.800,387.600 202.530,387.600 202.200 C 387.600 201.870,387.780 201.600,388.000 201.600 C 388.220 201.600,388.400 201.240,388.400 200.800 C 388.400 200.360,388.546 200.000,388.725 200.000 C 388.904 200.000,389.290 199.390,389.583 198.644 C 390.069 197.404,391.475 195.941,394.551 193.476 C 396.445 191.958,395.757 190.800,392.962 190.800 C 390.561 190.800,388.582 192.119,387.317 194.562 C 386.986 195.202,386.374 196.091,385.957 196.538 C 385.541 196.985,385.200 197.643,385.200 198.000 C 385.200 198.357,384.885 199.007,384.500 199.445 C 383.672 200.386,382.987 201.520,381.688 204.097 C 379.652 208.135,375.178 209.028,372.323 205.966 C 371.485 205.068,370.800 204.078,370.800 203.766 C 370.800 203.455,370.620 203.200,370.400 203.200 C 370.180 203.200,370.000 202.840,370.000 202.400 C 370.000 201.960,369.820 201.600,369.600 201.600 C 369.380 201.600,369.200 201.330,369.200 201.000 C 369.200 200.670,368.840 200.040,368.400 199.600 C 367.960 199.160,367.600 198.530,367.600 198.200 C 367.600 197.870,367.420 197.600,367.200 197.600 C 366.980 197.600,366.800 197.259,366.800 196.843 C 366.800 196.426,366.519 195.978,366.175 195.846 C 365.831 195.714,365.644 195.453,365.759 195.266 C 365.875 195.079,365.103 194.043,364.044 192.963 C 362.086 190.965,361.037 190.612,358.476 191.090 M311.732 192.763 C 305.882 192.991,304.629 193.228,305.427 193.952 C 306.680 195.090,322.857 195.771,325.773 194.809 C 330.895 193.119,324.914 192.247,311.732 192.763 M320.367 209.367 C 320.262 209.472,317.241 209.591,313.655 209.630 C 308.551 209.687,307.090 209.822,306.925 210.251 C 306.809 210.553,306.467 210.800,306.165 210.800 C 305.863 210.800,305.502 211.250,305.364 211.800 C 305.226 212.350,304.945 212.800,304.740 212.800 C 304.248 212.800,304.367 224.591,304.875 226.300 C 305.326 227.816,306.000 228.025,306.000 226.649 C 306.000 225.656,306.882 224.615,307.337 225.070 C 307.482 225.215,307.600 223.863,307.600 222.067 C 307.600 219.548,307.473 218.800,307.045 218.800 C 306.262 218.800,305.955 216.392,306.702 216.105 C 307.076 215.962,307.209 215.521,307.082 214.842 C 306.625 212.394,308.279 211.896,316.621 211.973 L 324.000 212.041 324.000 210.821 C 324.000 209.739,323.867 209.600,322.833 209.600 C 322.191 209.600,321.416 209.504,321.112 209.388 C 320.807 209.271,320.472 209.261,320.367 209.367 M37.844 217.700 C 38.008 218.195,38.173 219.629,38.212 220.888 C 38.250 222.146,38.512 223.453,38.793 223.791 C 39.114 224.178,39.225 225.002,39.090 226.004 C 38.972 226.882,39.039 227.600,39.238 227.600 C 39.437 227.600,39.600 227.960,39.600 228.400 C 39.600 229.375,39.439 229.386,37.962 228.514 C 37.297 228.121,36.795 227.479,36.787 227.014 C 36.780 226.566,36.510 225.851,36.187 225.424 C 35.524 224.547,35.386 220.979,36.000 220.600 C 36.220 220.464,36.400 219.673,36.400 218.843 C 36.400 216.687,37.279 215.992,37.844 217.700 M374.000 225.914 C 374.000 226.825,375.090 227.880,376.200 228.045 C 377.385 228.221,378.800 227.149,378.800 226.075 C 378.800 225.037,378.006 225.536,377.490 226.900 C 377.096 227.940,375.646 227.773,375.215 226.639 C 374.735 225.377,374.000 224.939,374.000 225.914 M86.072 228.513 C 85.838 228.795,85.455 229.528,85.222 230.142 C 84.793 231.270,83.273 231.530,83.514 230.435 C 83.936 228.516,82.404 228.013,80.700 229.509 C 80.315 229.847,80.000 229.994,80.000 229.835 C 80.000 229.676,79.477 229.918,78.838 230.373 C 78.199 230.828,77.479 231.200,77.238 231.200 C 76.997 231.200,76.800 231.380,76.800 231.600 C 76.800 231.820,76.517 232.000,76.172 232.000 C 75.827 232.000,74.792 232.502,73.872 233.116 C 72.952 233.729,71.300 234.672,70.200 235.210 C 69.100 235.749,68.110 236.295,68.000 236.424 C 67.890 236.553,67.485 236.775,67.100 236.917 C 66.449 237.157,66.400 238.293,66.400 252.987 C 66.400 269.789,66.421 269.965,68.222 267.975 C 68.645 267.508,69.279 267.232,69.684 267.338 C 70.121 267.452,70.400 267.306,70.400 266.963 C 70.400 266.653,70.732 266.400,71.138 266.400 C 71.544 266.400,72.202 266.040,72.600 265.600 C 72.998 265.160,73.566 264.800,73.862 264.800 C 74.158 264.800,74.400 264.599,74.400 264.353 C 74.400 264.104,74.753 263.999,75.200 264.116 C 75.720 264.252,76.000 264.128,76.000 263.763 C 76.000 263.453,76.236 263.200,76.525 263.200 C 76.813 263.200,77.398 262.885,77.825 262.500 C 78.251 262.115,79.140 261.530,79.800 261.201 C 80.460 260.871,81.090 260.511,81.200 260.400 C 81.310 260.289,81.940 259.929,82.600 259.600 C 83.260 259.271,83.890 258.911,84.000 258.801 C 84.394 258.405,86.613 257.146,87.300 256.929 C 87.685 256.807,88.000 256.548,88.000 256.353 C 88.000 256.159,88.278 256.000,88.617 256.000 C 88.956 256.000,89.589 255.669,90.023 255.264 C 90.458 254.859,91.305 254.282,91.907 253.982 C 92.508 253.682,93.362 253.122,93.805 252.737 C 94.248 252.353,95.283 251.757,96.105 251.414 C 96.927 251.070,97.600 250.645,97.600 250.469 C 97.600 250.293,98.230 249.902,99.000 249.600 C 99.770 249.298,100.400 248.904,100.400 248.725 C 100.400 248.546,99.770 248.400,99.000 248.400 C 98.130 248.400,97.600 248.206,97.600 247.889 C 97.600 247.338,98.987 246.000,99.558 246.000 C 100.807 246.000,100.291 243.291,98.945 242.779 C 97.867 242.369,97.721 241.530,98.600 240.800 C 99.646 239.932,99.272 239.710,96.300 239.437 C 93.627 239.192,89.826 238.565,88.411 238.136 C 87.893 237.978,87.893 237.912,88.411 237.578 C 88.928 237.246,88.927 237.151,88.400 236.800 C 87.694 236.329,88.455 235.617,89.676 235.606 C 90.649 235.597,90.947 234.890,90.264 234.207 C 89.942 233.885,89.551 232.671,89.396 231.510 C 88.996 228.516,87.322 227.007,86.072 228.513 M87.416 233.227 C 87.852 233.932,87.393 234.030,86.571 233.409 C 85.894 232.897,85.883 232.824,86.476 232.813 C 86.848 232.806,87.271 232.992,87.416 233.227 M93.225 243.065 C 93.785 244.540,93.153 244.993,91.905 244.011 C 91.338 243.565,90.587 243.200,90.237 243.200 C 89.887 243.200,89.600 243.050,89.600 242.867 C 89.600 241.489,92.690 241.658,93.225 243.065 " stroke="none" fill="#2b0c66" fill-rule="evenodd"></path><path id="path3" d="M17.900 179.903 C 17.295 180.278,16.800 180.724,16.800 180.893 C 16.800 181.062,16.558 181.200,16.262 181.200 C 15.436 181.200,15.200 188.941,15.200 215.983 C 15.200 240.414,15.223 240.800,16.697 240.800 C 16.992 240.800,17.620 241.160,18.092 241.600 C 18.564 242.040,19.187 242.400,19.475 242.400 C 19.764 242.400,20.000 242.580,20.000 242.800 C 20.000 243.020,20.360 243.200,20.800 243.200 C 21.240 243.200,21.600 243.336,21.600 243.502 C 21.600 243.669,22.185 244.057,22.900 244.365 C 23.615 244.673,24.650 245.236,25.200 245.616 C 26.482 246.501,28.897 247.883,31.267 249.089 C 32.294 249.611,33.351 250.300,33.616 250.619 C 33.881 250.939,34.352 251.200,34.663 251.200 C 34.974 251.200,35.694 251.505,36.263 251.878 C 37.343 252.586,38.800 252.873,38.800 252.379 C 38.800 252.221,39.385 251.793,40.100 251.429 C 42.363 250.275,44.173 249.149,45.026 248.362 C 45.480 247.943,46.065 247.600,46.326 247.600 C 46.587 247.600,46.800 247.420,46.800 247.200 C 46.800 246.980,47.160 246.800,47.600 246.800 C 48.436 246.800,48.678 246.219,48.015 245.809 C 47.803 245.678,47.248 245.952,46.781 246.419 C 45.655 247.545,45.386 247.174,46.196 245.608 C 46.615 244.797,46.758 243.921,46.594 243.173 C 46.376 242.180,46.487 241.947,47.330 241.627 C 47.876 241.419,48.432 241.072,48.566 240.855 C 48.700 240.639,49.357 240.341,50.026 240.194 C 51.794 239.806,51.275 239.146,49.066 238.972 C 46.779 238.791,46.400 238.593,46.400 237.576 C 46.400 237.149,46.212 236.800,45.982 236.800 C 45.753 236.800,45.618 237.115,45.682 237.500 C 45.869 238.614,41.354 238.635,40.759 237.523 C 40.213 236.503,40.375 236.375,42.308 236.297 C 43.374 236.255,44.064 235.990,44.365 235.508 C 44.955 234.563,44.607 234.446,40.800 234.308 C 37.785 234.199,36.724 233.070,38.541 231.906 C 39.026 231.595,38.645 231.465,37.556 231.570 C 36.367 231.683,35.342 229.584,36.247 228.887 C 36.776 228.481,36.851 228.252,36.500 228.121 C 36.225 228.018,36.000 227.666,36.000 227.340 C 36.000 227.014,35.550 226.157,35.000 225.436 C 34.450 224.714,34.000 224.018,34.000 223.888 C 34.000 223.758,33.792 223.145,33.539 222.526 C 33.285 221.907,33.026 221.143,32.964 220.830 C 32.901 220.516,32.589 220.114,32.270 219.935 C 31.951 219.756,31.545 219.113,31.368 218.505 C 31.058 217.442,30.989 217.030,30.859 215.500 C 30.824 215.086,30.473 214.800,30.000 214.800 C 29.283 214.800,29.200 214.533,29.200 212.243 C 29.200 209.869,29.131 209.669,28.227 209.442 C 27.691 209.308,27.139 208.839,27.000 208.399 C 26.860 207.960,26.586 207.600,26.391 207.600 C 26.196 207.600,25.920 206.982,25.779 206.228 C 25.637 205.473,25.269 204.759,24.961 204.640 C 24.593 204.499,24.400 203.796,24.400 202.596 C 24.400 201.319,24.158 200.507,23.600 199.908 C 23.129 199.402,22.800 198.496,22.800 197.705 C 22.800 196.965,22.496 195.784,22.125 195.080 C 21.753 194.375,21.445 192.882,21.439 191.759 C 21.431 190.176,21.291 189.727,20.814 189.759 C 20.378 189.788,20.188 189.394,20.159 188.400 C 20.136 187.630,19.805 186.121,19.424 185.046 C 18.779 183.227,18.793 181.526,19.466 179.772 C 19.754 179.022,19.254 179.064,17.900 179.903 M20.400 182.551 C 20.400 183.521,21.392 183.984,22.935 183.733 C 24.545 183.472,25.346 182.800,24.047 182.800 C 23.607 182.800,23.136 182.620,23.000 182.400 C 22.616 181.779,20.400 181.908,20.400 182.551 M13.334 189.600 C 13.334 191.250,13.405 191.925,13.491 191.100 C 13.578 190.275,13.578 188.925,13.491 188.100 C 13.405 187.275,13.334 187.950,13.334 189.600 M389.478 192.554 C 388.665 193.299,388.000 194.031,388.000 194.182 C 388.000 194.333,387.460 195.241,386.800 196.200 C 386.140 197.159,385.600 198.227,385.600 198.572 C 385.600 198.917,385.450 199.200,385.268 199.200 C 385.085 199.200,384.686 199.695,384.382 200.300 C 384.078 200.905,383.507 201.878,383.114 202.462 C 382.721 203.046,382.400 203.719,382.400 203.959 C 382.400 204.397,381.213 205.926,379.878 207.208 C 377.278 209.703,372.445 208.177,370.409 204.217 C 369.895 203.218,369.323 202.400,369.137 202.400 C 368.952 202.400,368.796 202.085,368.791 201.700 C 368.786 201.315,368.430 200.550,368.000 200.000 C 367.570 199.450,367.214 198.797,367.209 198.549 C 367.204 198.301,366.921 197.866,366.580 197.584 C 366.239 197.301,365.607 196.294,365.175 195.346 C 364.189 193.180,361.966 191.600,359.907 191.600 C 357.918 191.600,357.981 191.810,360.800 194.600 C 362.120 195.906,363.200 197.146,363.200 197.356 C 363.200 197.566,363.454 198.021,363.765 198.369 C 364.076 198.716,365.167 200.617,366.189 202.592 C 368.542 207.138,370.094 209.157,372.419 210.695 L 374.264 211.916 374.081 218.370 C 373.930 223.675,374.003 224.946,374.488 225.512 C 374.813 225.890,375.190 226.515,375.327 226.900 C 375.463 227.285,375.946 227.600,376.400 227.600 C 376.854 227.600,377.344 227.285,377.490 226.900 C 377.636 226.515,378.011 225.941,378.324 225.625 C 378.784 225.160,378.858 223.825,378.711 218.625 L 378.529 212.200 379.565 211.300 C 380.134 210.806,380.763 210.401,380.962 210.400 C 381.712 210.399,384.355 207.171,385.442 204.929 C 386.063 203.648,386.712 202.540,386.885 202.467 C 387.058 202.393,387.200 202.078,387.200 201.767 C 387.200 201.455,387.346 201.200,387.525 201.200 C 387.704 201.200,388.098 200.570,388.400 199.800 C 388.702 199.030,389.096 198.400,389.275 198.400 C 389.454 198.400,389.600 198.108,389.600 197.752 C 389.600 197.046,392.990 193.600,393.684 193.600 C 393.920 193.600,394.337 193.293,394.611 192.917 C 396.212 190.727,391.812 190.416,389.478 192.554 M380.140 219.600 C 380.140 221.470,380.209 222.235,380.293 221.300 C 380.377 220.365,380.377 218.835,380.293 217.900 C 380.209 216.965,380.140 217.730,380.140 219.600 M36.667 217.067 C 36.520 217.213,36.400 218.013,36.400 218.843 C 36.400 219.673,36.220 220.464,36.000 220.600 C 35.386 220.979,35.524 224.547,36.187 225.424 C 36.510 225.851,36.780 226.566,36.787 227.014 C 36.795 227.479,37.297 228.121,37.962 228.514 C 39.439 229.386,39.600 229.375,39.600 228.400 C 39.600 227.960,39.437 227.600,39.238 227.600 C 39.039 227.600,38.972 226.882,39.090 226.004 C 39.225 225.002,39.114 224.178,38.793 223.791 C 38.512 223.453,38.250 222.146,38.212 220.888 C 38.111 217.594,37.543 216.190,36.667 217.067 " stroke="none" fill="#210c47" fill-rule="evenodd"></path><path id="path4" d="M63.200 153.043 C 62.430 153.594,60.990 154.416,60.000 154.868 C 59.010 155.320,57.885 155.967,57.500 156.307 C 57.115 156.646,56.800 156.797,56.800 156.642 C 56.800 156.486,56.178 156.834,55.417 157.414 C 54.657 157.994,53.840 158.348,53.601 158.201 C 53.363 158.053,52.801 158.400,52.352 158.970 C 51.903 159.541,51.391 159.918,51.213 159.808 C 51.036 159.699,50.670 159.875,50.400 160.200 C 50.130 160.525,49.756 160.697,49.569 160.581 C 49.382 160.465,48.908 160.657,48.515 161.006 C 48.122 161.355,47.350 161.991,46.800 162.418 C 46.250 162.846,47.234 162.469,48.986 161.582 C 50.739 160.694,52.270 159.810,52.390 159.616 C 52.510 159.422,53.146 159.136,53.804 158.979 C 54.462 158.823,55.360 158.383,55.800 158.003 C 56.240 157.622,57.050 157.205,57.600 157.077 C 58.595 156.845,58.595 156.848,57.457 157.771 C 56.702 158.384,56.469 158.796,56.773 158.983 C 57.026 159.139,57.133 159.582,57.011 159.967 C 56.736 160.832,58.239 161.600,60.205 161.600 C 62.319 161.600,62.508 162.335,62.304 169.750 C 62.104 177.021,62.117 177.112,63.458 177.622 C 64.617 178.063,64.412 178.610,62.230 180.901 C 60.742 182.462,60.294 183.880,61.425 183.446 C 61.894 183.266,62.018 183.429,61.925 184.103 C 61.805 184.967,58.385 187.570,57.343 187.591 C 57.091 187.596,56.782 187.870,56.655 188.200 C 56.529 188.530,56.149 188.800,55.813 188.800 C 55.476 188.800,55.200 189.070,55.200 189.400 C 55.200 190.221,55.712 190.154,56.270 189.260 C 56.802 188.407,60.588 186.321,60.948 186.681 C 61.080 186.814,61.558 186.453,62.009 185.879 C 62.460 185.306,63.070 184.929,63.363 185.041 C 63.657 185.154,64.012 184.947,64.152 184.581 C 64.299 184.197,64.658 184.013,65.003 184.146 C 65.526 184.347,65.600 182.371,65.600 168.187 C 65.600 150.471,65.721 151.236,63.200 153.043 M43.600 164.000 C 43.600 164.220,43.240 164.400,42.800 164.400 C 42.360 164.400,42.000 164.567,42.000 164.771 C 42.000 164.975,41.685 165.224,41.300 165.324 C 40.773 165.462,40.823 165.519,41.500 165.554 C 41.995 165.579,42.400 165.420,42.400 165.200 C 42.400 164.980,42.760 164.800,43.200 164.800 C 43.644 164.800,44.000 164.533,44.000 164.200 C 44.000 163.870,43.910 163.600,43.800 163.600 C 43.690 163.600,43.600 163.780,43.600 164.000 M56.292 166.437 C 55.873 166.680,55.709 167.044,55.889 167.325 C 56.058 167.586,56.229 168.610,56.270 169.600 C 56.532 175.979,56.826 177.280,57.946 176.999 C 59.332 176.651,59.349 176.621,58.753 175.534 C 58.455 174.992,58.286 173.607,58.348 172.232 C 58.578 167.190,57.965 165.463,56.292 166.437 M38.734 166.683 C 37.929 166.807,36.675 168.000,37.351 168.000 C 37.641 168.000,40.000 166.727,40.000 166.571 C 40.000 166.477,39.955 166.427,39.900 166.460 C 39.845 166.493,39.320 166.593,38.734 166.683 M59.948 167.524 C 59.510 167.978,59.361 168.626,59.494 169.500 C 59.741 171.134,60.400 171.206,60.400 169.600 C 60.400 168.940,60.580 168.400,60.800 168.400 C 61.020 168.400,61.200 168.040,61.200 167.600 C 61.200 166.638,60.824 166.615,59.948 167.524 M35.900 168.276 C 35.515 168.376,35.200 168.625,35.200 168.829 C 35.200 169.033,34.900 169.200,34.533 169.200 C 34.167 169.200,33.976 169.310,34.110 169.444 C 34.408 169.741,36.800 168.726,36.800 168.302 C 36.800 168.136,36.755 168.021,36.700 168.046 C 36.645 168.072,36.285 168.175,35.900 168.276 M91.018 170.035 C 90.588 170.468,90.009 170.735,89.731 170.629 C 89.453 170.522,89.119 170.607,88.989 170.817 C 88.859 171.028,88.493 171.200,88.176 171.200 C 87.859 171.200,87.240 171.560,86.800 172.000 C 86.360 172.440,85.730 172.800,85.400 172.800 C 85.070 172.800,84.800 172.980,84.800 173.200 C 84.800 173.420,84.440 173.600,84.000 173.600 C 83.560 173.600,83.200 173.780,83.200 174.000 C 83.200 174.220,82.840 174.400,82.400 174.400 C 81.960 174.400,81.600 174.580,81.600 174.800 C 81.600 175.020,81.364 175.200,81.075 175.200 C 80.787 175.200,80.193 175.515,79.755 175.900 C 78.732 176.800,77.331 177.600,76.777 177.600 C 76.539 177.600,75.592 178.111,74.672 178.735 C 73.752 179.359,72.415 180.123,71.700 180.432 C 70.985 180.742,70.400 181.131,70.400 181.298 C 70.400 181.464,70.040 181.600,69.600 181.600 C 69.160 181.600,68.800 181.737,68.800 181.905 C 68.800 182.073,68.407 182.388,67.926 182.605 C 66.536 183.233,66.678 183.722,68.601 184.937 C 69.590 185.562,70.400 186.220,70.400 186.399 C 70.400 186.578,70.760 186.631,71.200 186.516 C 71.640 186.401,72.000 186.464,72.000 186.656 C 72.000 186.848,72.540 187.244,73.200 187.536 C 73.860 187.828,74.400 188.305,74.400 188.596 C 74.400 188.928,74.698 189.047,75.200 188.916 C 75.647 188.799,76.000 188.904,76.000 189.153 C 76.000 189.399,76.360 189.600,76.800 189.600 C 77.240 189.600,77.600 189.759,77.600 189.953 C 77.600 190.148,77.915 190.407,78.300 190.529 C 79.236 190.825,81.366 192.124,81.533 192.500 C 81.607 192.665,82.012 192.800,82.433 192.800 C 82.855 192.800,83.200 192.980,83.200 193.200 C 83.200 193.420,83.483 193.600,83.829 193.600 C 84.559 193.600,85.600 194.538,85.600 195.195 C 85.600 195.444,85.797 195.525,86.038 195.376 C 86.486 195.099,88.203 195.826,89.100 196.671 C 89.480 197.030,89.600 200.303,89.600 210.351 L 89.600 223.559 88.204 224.624 C 87.313 225.303,86.558 225.593,86.116 225.423 C 85.736 225.277,85.551 225.284,85.706 225.439 C 86.068 225.802,84.801 226.771,83.943 226.787 C 83.581 226.794,83.183 227.067,83.058 227.393 C 82.928 227.731,82.565 227.885,82.215 227.750 C 81.877 227.621,81.600 227.711,81.600 227.950 C 81.600 228.190,80.713 228.836,79.628 229.386 C 78.544 229.935,77.543 230.568,77.405 230.792 C 77.006 231.438,77.578 231.270,78.838 230.373 C 79.477 229.918,80.000 229.676,80.000 229.835 C 80.000 229.994,80.315 229.847,80.700 229.509 C 82.415 228.004,83.923 228.512,83.514 230.459 C 83.271 231.615,84.832 230.942,85.501 229.601 C 86.867 226.866,88.938 227.838,89.386 231.423 C 89.535 232.621,89.926 233.869,90.254 234.197 C 90.946 234.888,90.655 235.597,89.676 235.606 C 88.455 235.617,87.694 236.329,88.400 236.800 C 88.927 237.151,88.928 237.246,88.411 237.578 C 87.893 237.912,87.893 237.978,88.411 238.136 C 89.826 238.565,93.627 239.192,96.300 239.437 C 99.272 239.710,99.646 239.932,98.600 240.800 C 97.721 241.530,97.867 242.369,98.945 242.779 C 100.291 243.291,100.807 246.000,99.558 246.000 C 98.987 246.000,97.600 247.338,97.600 247.889 C 97.600 248.206,98.130 248.400,99.000 248.400 C 99.770 248.400,100.400 248.546,100.400 248.725 C 100.400 248.904,99.770 249.298,99.000 249.600 C 98.230 249.902,97.600 250.293,97.600 250.469 C 97.600 250.645,96.932 251.069,96.115 251.410 C 95.298 251.751,94.322 252.309,93.946 252.649 C 93.571 252.988,92.674 253.583,91.953 253.969 C 90.634 254.677,89.962 255.600,90.767 255.600 C 91.005 255.600,91.200 255.423,91.200 255.207 C 91.200 254.990,92.087 254.364,93.172 253.814 C 94.256 253.265,95.252 252.640,95.385 252.425 C 95.517 252.211,95.890 252.136,96.213 252.260 C 96.536 252.384,96.800 252.287,96.800 252.045 C 96.800 251.802,97.601 251.228,98.580 250.768 C 99.558 250.307,100.562 249.687,100.809 249.389 C 101.056 249.091,101.515 248.946,101.829 249.067 C 102.143 249.187,102.400 249.104,102.400 248.882 C 102.400 248.532,104.641 246.927,105.800 246.447 C 106.020 246.356,106.952 245.768,107.872 245.141 C 108.792 244.513,109.737 244.000,109.972 244.000 C 110.207 244.000,110.400 243.799,110.400 243.553 C 110.400 243.304,110.753 243.199,111.200 243.316 C 111.702 243.447,112.000 243.328,112.000 242.996 C 112.000 242.705,112.540 242.228,113.200 241.936 C 113.860 241.644,114.400 241.269,114.400 241.102 C 114.400 240.936,114.683 240.800,115.029 240.800 C 116.860 240.800,116.863 240.771,116.681 220.790 C 116.586 210.442,116.394 201.861,116.255 201.721 C 116.115 201.581,116.000 203.282,116.000 205.501 C 116.000 210.461,115.331 212.570,114.636 209.800 C 114.498 209.250,114.189 208.800,113.950 208.800 C 113.711 208.800,113.155 208.342,112.715 207.782 C 111.958 206.821,111.884 206.804,111.370 207.482 C 110.858 208.157,110.825 208.158,110.813 207.500 C 110.806 207.115,110.620 206.800,110.400 206.800 C 110.180 206.800,110.000 206.517,110.000 206.171 C 110.000 205.457,109.305 204.670,108.356 204.312 C 107.939 204.154,107.618 203.358,107.445 202.054 C 107.262 200.674,106.897 199.814,106.287 199.320 C 104.880 198.183,104.000 196.545,104.000 195.063 C 104.000 194.312,103.730 193.474,103.400 193.200 C 103.070 192.926,102.800 192.314,102.800 191.839 C 102.800 191.365,102.440 190.717,102.000 190.400 C 101.560 190.083,101.200 189.629,101.200 189.391 C 101.200 188.404,100.150 186.806,99.500 186.803 C 99.078 186.801,98.800 186.496,98.800 186.033 C 98.800 185.612,98.575 185.180,98.300 185.075 C 97.965 184.946,98.097 184.664,98.700 184.219 C 99.811 183.399,99.840 182.956,98.800 182.684 C 97.698 182.396,97.798 181.675,99.015 181.120 C 99.628 180.841,99.946 180.436,99.817 180.100 C 99.699 179.793,99.799 179.176,100.038 178.728 C 100.353 178.141,100.353 177.793,100.037 177.477 C 99.797 177.237,99.600 176.654,99.600 176.182 C 99.600 174.831,98.244 173.890,96.308 173.899 C 94.113 173.908,93.266 173.309,94.377 172.531 C 95.383 171.826,94.402 170.400,92.911 170.400 C 91.937 170.400,91.672 169.799,92.500 169.465 C 92.836 169.329,92.804 169.261,92.400 169.255 C 92.070 169.251,91.448 169.602,91.018 170.035 M32.600 170.400 C 32.464 170.620,32.081 170.800,31.748 170.800 C 31.415 170.800,30.873 171.070,30.543 171.400 C 29.721 172.222,30.102 172.153,31.888 171.157 C 33.688 170.153,33.874 170.000,33.290 170.000 C 33.047 170.000,32.736 170.180,32.600 170.400 M28.000 172.800 C 28.000 173.020,27.730 173.200,27.400 173.200 C 27.070 173.200,26.800 173.391,26.800 173.624 C 26.800 173.857,26.981 173.936,27.201 173.799 C 27.422 173.663,28.097 173.293,28.701 172.978 C 29.729 172.442,29.742 172.405,28.900 172.402 C 28.405 172.401,28.000 172.580,28.000 172.800 M24.800 174.633 C 24.242 174.943,24.065 175.185,24.400 175.181 C 24.730 175.178,25.349 174.910,25.776 174.587 C 26.739 173.859,26.145 173.887,24.800 174.633 M53.867 189.867 C 53.484 190.249,53.538 190.800,53.957 190.800 C 54.154 190.800,54.418 190.530,54.545 190.200 C 54.779 189.590,54.353 189.381,53.867 189.867 M52.100 190.944 C 51.605 191.189,51.200 191.510,51.200 191.657 C 51.200 192.143,52.740 191.533,52.960 190.961 C 53.078 190.652,53.136 190.422,53.087 190.449 C 53.039 190.476,52.595 190.699,52.100 190.944 M307.600 191.982 C 307.600 192.192,306.982 192.480,306.228 192.621 C 303.669 193.101,304.218 194.843,307.100 195.390 C 307.815 195.525,308.400 195.808,308.400 196.018 C 308.400 196.228,308.850 196.400,309.400 196.400 C 309.950 196.400,310.400 196.220,310.400 196.000 C 310.400 195.755,312.325 195.600,315.376 195.600 C 318.263 195.600,320.457 195.768,320.600 196.000 C 320.736 196.220,321.747 196.400,322.847 196.400 C 323.947 196.400,324.747 196.238,324.624 196.039 C 324.501 195.840,324.941 195.490,325.600 195.260 C 326.260 195.030,326.800 194.747,326.800 194.631 C 326.800 194.515,326.310 194.606,325.712 194.834 C 322.939 195.888,305.715 194.945,305.306 193.717 C 305.055 192.965,307.046 192.791,317.000 192.694 C 322.280 192.642,326.195 192.542,325.700 192.472 C 325.205 192.402,324.800 192.177,324.800 191.972 C 324.800 191.754,321.238 191.600,316.200 191.600 C 311.005 191.600,307.600 191.751,307.600 191.982 M50.000 192.302 C 50.000 192.469,49.415 192.858,48.700 193.168 C 47.985 193.477,46.677 194.196,45.793 194.765 C 44.910 195.334,43.830 196.000,43.393 196.243 C 42.564 196.707,41.897 223.257,42.695 224.055 C 42.863 224.223,43.000 218.114,43.000 210.480 L 43.000 196.600 43.900 196.472 C 44.395 196.402,44.800 196.177,44.800 195.972 C 44.800 195.767,45.070 195.600,45.400 195.600 C 45.730 195.600,46.000 195.420,46.000 195.200 C 46.000 194.980,46.270 194.800,46.600 194.800 C 46.930 194.800,47.200 194.620,47.200 194.400 C 47.200 194.180,47.560 194.000,48.000 194.000 C 48.440 194.000,48.800 193.820,48.800 193.600 C 48.800 193.380,49.141 193.200,49.557 193.200 C 49.974 193.200,50.418 192.930,50.545 192.600 C 50.671 192.270,50.601 192.000,50.387 192.000 C 50.174 192.000,50.000 192.136,50.000 192.302 M276.123 193.057 C 276.023 193.318,276.031 194.402,276.142 195.466 C 276.253 196.530,276.356 203.616,276.372 211.213 L 276.400 225.026 277.300 225.099 L 278.200 225.173 278.278 208.793 L 278.356 192.413 277.331 192.497 C 276.766 192.544,276.223 192.796,276.123 193.057 M361.599 196.300 C 362.122 197.015,362.613 197.600,362.689 197.600 C 362.993 197.600,362.001 196.100,361.345 195.567 C 360.913 195.216,361.010 195.496,361.599 196.300 M311.600 208.800 C 311.600 209.020,311.015 209.203,310.300 209.206 C 309.585 209.209,308.730 209.406,308.400 209.644 C 307.893 210.008,307.909 210.040,308.499 209.851 C 308.884 209.727,312.343 209.601,316.185 209.570 C 322.160 209.523,323.092 209.434,322.615 208.958 C 321.978 208.320,319.600 208.196,319.600 208.800 C 319.600 209.026,318.467 209.200,317.000 209.200 C 315.533 209.200,314.400 209.026,314.400 208.800 C 314.400 208.580,313.770 208.400,313.000 208.400 C 312.230 208.400,311.600 208.580,311.600 208.800 M305.350 210.912 C 304.663 211.841,303.979 213.280,303.830 214.111 C 303.681 214.942,303.389 215.517,303.180 215.388 C 302.952 215.247,302.800 216.444,302.800 218.376 C 302.800 220.149,302.957 221.600,303.150 221.600 C 303.343 221.600,303.500 222.036,303.500 222.569 C 303.500 227.251,305.152 229.960,306.474 227.447 C 306.719 226.981,307.099 226.483,307.318 226.340 C 307.537 226.198,307.598 225.772,307.454 225.395 C 307.084 224.432,306.000 225.367,306.000 226.649 C 306.000 228.025,305.326 227.816,304.875 226.300 C 304.367 224.591,304.248 212.800,304.740 212.800 C 304.945 212.800,305.226 212.350,305.364 211.800 C 305.502 211.250,305.863 210.800,306.165 210.800 C 306.467 210.800,306.824 210.515,306.957 210.167 C 307.569 208.574,306.828 208.917,305.350 210.912 M324.000 210.800 C 324.000 211.324,324.194 211.500,324.600 211.345 C 324.930 211.218,325.200 210.973,325.200 210.800 C 325.200 210.627,324.930 210.382,324.600 210.255 C 324.194 210.100,324.000 210.276,324.000 210.800 M308.279 212.700 C 307.482 213.305,306.823 213.966,306.815 214.170 C 306.807 214.373,307.205 214.176,307.700 213.732 C 308.195 213.288,309.045 212.627,309.589 212.262 C 310.133 211.898,310.387 211.600,310.153 211.600 C 309.920 211.600,309.076 212.095,308.279 212.700 M307.200 215.357 C 307.200 215.664,306.959 216.007,306.664 216.120 C 305.950 216.394,306.293 218.800,307.045 218.800 C 307.444 218.800,307.600 218.238,307.600 216.800 C 307.600 215.700,307.510 214.800,307.400 214.800 C 307.290 214.800,307.200 215.051,307.200 215.357 M44.321 225.030 C 44.816 225.376,45.441 225.571,45.710 225.461 C 45.991 225.348,45.901 225.250,45.500 225.232 C 45.115 225.214,44.800 225.020,44.800 224.800 C 44.800 224.580,44.490 224.400,44.111 224.400 C 43.548 224.400,43.586 224.515,44.321 225.030 M51.121 229.030 C 51.616 229.376,52.241 229.571,52.510 229.461 C 52.791 229.348,52.701 229.250,52.300 229.232 C 51.915 229.214,51.600 229.020,51.600 228.800 C 51.600 228.580,51.290 228.400,50.911 228.400 C 50.348 228.400,50.386 228.515,51.121 229.030 M54.486 231.000 C 55.295 231.550,56.070 232.000,56.207 232.000 C 56.344 232.000,57.208 232.501,58.128 233.112 C 60.314 234.567,61.951 235.383,62.194 235.140 C 62.301 235.033,61.761 234.699,60.994 234.398 C 60.227 234.097,59.600 233.704,59.600 233.525 C 59.600 233.346,59.330 233.200,59.000 233.200 C 58.670 233.200,58.400 233.054,58.400 232.875 C 58.400 232.696,57.770 232.302,57.000 232.000 C 56.230 231.698,55.600 231.304,55.600 231.125 C 55.600 230.946,55.330 230.800,55.000 230.800 C 54.670 230.800,54.400 230.620,54.400 230.400 C 54.400 230.180,54.088 230.000,53.707 230.000 C 53.258 230.000,53.531 230.351,54.486 231.000 M74.093 232.400 C 73.818 232.840,73.254 233.200,72.839 233.200 C 72.425 233.200,71.982 233.470,71.855 233.800 C 71.729 234.130,71.713 234.400,71.821 234.400 C 72.263 234.400,75.200 232.268,75.200 231.947 C 75.200 231.334,74.607 231.576,74.093 232.400 M86.571 233.409 C 87.393 234.030,87.852 233.932,87.416 233.227 C 87.271 232.992,86.848 232.806,86.476 232.813 C 85.883 232.824,85.894 232.897,86.571 233.409 M70.243 234.633 C 70.093 235.023,70.182 235.206,70.475 235.108 C 71.073 234.909,71.402 234.000,70.876 234.000 C 70.661 234.000,70.376 234.285,70.243 234.633 M68.447 235.455 C 67.969 235.995,67.991 236.060,68.614 235.939 C 69.010 235.863,69.409 235.575,69.500 235.300 C 69.730 234.610,69.116 234.700,68.447 235.455 M66.196 237.300 C 66.076 237.795,66.030 245.130,66.094 253.600 L 66.210 269.000 66.305 253.087 L 66.400 237.174 67.300 236.812 L 68.200 236.451 67.308 236.425 C 66.702 236.408,66.345 236.689,66.196 237.300 M62.000 239.295 C 61.230 239.756,59.790 240.553,58.800 241.065 C 57.446 241.766,57.223 241.997,57.900 241.998 C 58.395 241.999,58.800 241.854,58.800 241.675 C 58.800 241.496,59.430 241.102,60.200 240.800 C 60.970 240.498,61.600 240.104,61.600 239.925 C 61.600 239.746,61.941 239.600,62.357 239.600 C 62.774 239.600,63.218 239.330,63.345 239.000 C 63.471 238.670,63.536 238.413,63.487 238.428 C 63.439 238.444,62.770 238.834,62.000 239.295 M89.867 242.267 C 89.397 242.737,89.581 243.200,90.237 243.200 C 90.587 243.200,91.338 243.565,91.905 244.011 C 93.153 244.993,93.785 244.540,93.225 243.065 C 92.828 242.022,90.633 241.500,89.867 242.267 M55.600 243.200 C 55.050 243.630,54.307 243.986,53.949 243.991 C 53.591 243.996,53.060 244.315,52.768 244.700 C 52.318 245.296,52.322 245.325,52.799 244.900 C 53.108 244.625,53.774 244.400,54.280 244.400 C 54.786 244.400,55.200 244.242,55.200 244.050 C 55.200 243.857,55.785 243.412,56.500 243.059 C 57.215 242.707,57.530 242.418,57.200 242.418 C 56.870 242.418,56.150 242.770,55.600 243.200 M50.066 246.193 C 48.564 247.020,48.079 247.699,49.494 246.993 C 50.203 246.639,50.888 246.181,51.016 245.975 C 51.292 245.527,51.261 245.534,50.066 246.193 M86.667 257.067 C 86.284 257.449,86.338 258.000,86.757 258.000 C 86.954 258.000,87.218 257.730,87.345 257.400 C 87.579 256.790,87.153 256.581,86.667 257.067 M84.800 258.233 C 83.856 258.757,83.848 258.789,84.657 258.794 C 85.129 258.797,85.618 258.530,85.745 258.200 C 85.871 257.870,85.936 257.618,85.887 257.639 C 85.839 257.661,85.350 257.928,84.800 258.233 M82.584 259.627 C 82.128 260.364,82.732 260.525,83.410 259.848 C 83.969 259.288,83.975 259.200,83.452 259.200 C 83.119 259.200,82.729 259.392,82.584 259.627 M81.133 260.312 C 81.060 260.484,80.370 260.930,79.600 261.303 C 78.830 261.676,78.504 261.986,78.876 261.991 C 79.248 261.996,79.664 261.820,79.800 261.600 C 79.936 261.380,80.377 261.200,80.781 261.200 C 81.184 261.200,81.618 260.930,81.745 260.600 C 81.975 260.000,81.385 259.722,81.133 260.312 M76.800 263.033 C 75.856 263.557,75.848 263.589,76.657 263.594 C 77.129 263.597,77.618 263.330,77.745 263.000 C 77.871 262.670,77.936 262.418,77.887 262.439 C 77.839 262.461,77.350 262.728,76.800 263.033 M72.800 265.400 C 72.456 265.815,72.441 266.000,72.751 266.000 C 72.998 266.000,73.200 265.833,73.200 265.629 C 73.200 265.425,73.515 265.176,73.900 265.076 C 74.491 264.921,74.498 264.886,73.949 264.846 C 73.591 264.821,73.074 265.070,72.800 265.400 M67.878 268.213 C 67.260 268.756,66.969 269.200,67.231 269.200 C 67.492 269.200,67.997 268.868,68.353 268.463 C 68.709 268.057,69.270 267.621,69.600 267.494 C 70.133 267.289,70.133 267.261,69.600 267.244 C 69.270 267.234,68.495 267.670,67.878 268.213 " stroke="none" fill="#410f9b" fill-rule="evenodd"></path></g></svg>